<svg width="566" height="448" viewBox="0 0 566 448" fill="none" xmlns="http://www.w3.org/2000/svg">
<g clip-path="url(#clip0_343_34)">
<path d="M305.778 341.63L351.203 304.386C371.009 311.733 421.895 327.641 466.996 332.496C512.098 337.352 551.731 353.898 565.91 361.564V448H0V361.796C14.1632 354.123 54.6269 337.449 99.6787 332.589C144.73 327.729 198.008 311.737 217.792 304.384L305.778 341.63Z" fill="url(#paint0_linear_343_34)"/>
<path d="M357.287 246.867C357.287 282.997 360.659 363.544 288.833 363.544C224.087 365.904 211.273 287.718 211.273 251.588C211.273 215.458 263.132 232.704 288.833 232.704C314.534 232.704 357.287 210.737 357.287 246.867Z" fill="black"/>
<path d="M351.711 257.013C351.692 257.065 351.656 257.164 351.623 257.294C351.597 257.397 351.532 257.669 351.532 258.027H357.655C357.655 258.637 357.464 259.109 357.452 259.14C357.397 259.287 357.34 259.411 357.304 259.486C357.228 259.643 357.142 259.802 357.065 259.938C356.907 260.218 356.691 260.576 356.437 260.988C355.922 261.821 355.179 262.985 354.249 264.422C352.385 267.301 349.727 271.342 346.543 276.162C340.618 285.132 332.864 296.82 324.953 308.847C314.904 328.972 316.826 351.928 317.836 360.44L314.796 360.801L311.756 361.162C311.067 355.354 309.873 342.451 312.426 328.005C310.146 331.519 307.935 334.947 305.838 338.224L303.419 366.199L301.676 366.048L299.933 365.897L301.773 344.612C301.035 345.781 300.318 346.92 299.625 348.027C296.393 353.192 293.699 357.624 291.793 360.968C290.838 362.643 290.102 364.011 289.599 365.041C289.347 365.557 289.17 365.954 289.058 366.241C288.924 366.582 288.948 366.601 288.97 366.429L285.933 366.049L285.932 366.048V366.049L282.895 366.428C282.919 366.623 282.951 366.62 282.813 366.283C282.699 366.003 282.518 365.612 282.257 365.101C281.735 364.08 280.968 362.725 279.973 361.062C277.986 357.744 275.175 353.346 271.8 348.223C271.438 347.673 271.067 347.118 270.693 346.553L272.367 365.897L270.624 366.048L268.881 366.199L266.657 340.501C263.492 335.789 260.045 330.719 256.469 325.501C259.771 340.277 259.536 353.17 258.795 359.412L255.755 359.052L252.715 358.69C253.689 350.477 253.725 328.882 244.218 307.831L244.26 307.812C236.371 296.439 228.702 285.468 222.78 276.962C219.453 272.183 216.675 268.176 214.727 265.32C213.754 263.896 212.977 262.741 212.439 261.914C212.173 261.505 211.947 261.148 211.78 260.868C211.7 260.733 211.609 260.573 211.528 260.414C211.49 260.338 211.428 260.212 211.369 260.06C211.357 260.029 211.147 259.539 211.147 258.901H217.271C217.27 258.526 217.2 258.241 217.171 258.134C217.135 257.998 217.096 257.894 217.075 257.84C217.033 257.732 216.997 257.662 216.992 257.653C217 257.667 217.016 257.695 217.044 257.741C217.146 257.912 217.318 258.186 217.57 258.574C218.071 259.343 218.817 260.453 219.784 261.87C221.714 264.699 224.477 268.684 227.805 273.464C234.455 283.015 243.346 295.722 252.26 308.601C256.784 315.137 261.318 321.725 265.574 327.975L264.704 317.908C261.303 314.727 259.761 310.192 259.156 305.978C258.515 301.515 258.881 297.136 259.424 294.42L261.14 294.763L262.854 295.105C262.377 297.491 262.043 301.467 262.619 305.48C263.199 309.519 264.659 313.324 267.514 315.729L268.067 316.195L268.13 316.916L269.6 333.912C272.218 337.79 274.684 341.471 276.913 344.855C280.303 350.002 283.171 354.485 285.226 357.916C285.45 358.29 285.664 358.654 285.87 359.006C286.063 358.66 286.264 358.304 286.474 357.937C288.442 354.483 291.188 349.967 294.435 344.779C296.984 340.705 299.852 336.2 302.912 331.444L304.17 316.916L304.232 316.195L304.786 315.729C307.641 313.324 309.101 309.519 309.681 305.48C310.257 301.467 309.922 297.491 309.445 295.105L311.16 294.763L312.876 294.42C313.419 297.136 313.784 301.515 313.144 305.978C312.538 310.192 310.996 314.727 307.596 317.908L306.967 325.17C310.544 319.652 314.292 313.92 318.032 308.226C326.563 295.238 335.07 282.422 341.434 272.788C344.618 267.967 347.263 263.947 349.109 261.095C350.034 259.666 350.749 258.546 351.228 257.771C351.47 257.379 351.635 257.103 351.733 256.929C351.763 256.877 351.778 256.847 351.785 256.834C351.782 256.841 351.749 256.909 351.711 257.013Z" fill="#CDCDCD"/>
<path d="M209.855 179.179C209.855 200.428 195.271 217.654 177.278 217.654C159.287 217.654 155.679 203.226 144.702 179.179C137.189 157.208 134.214 141.85 155.679 142.183C173.671 142.183 209.855 157.929 209.855 179.179Z" fill="white"/>
<path d="M161.347 175.809C158.919 182.014 165.731 188.061 169.44 190.309L176.185 203.123C169.778 203.573 157.166 199.751 157.975 180.867C158.987 157.262 155.615 156.587 151.905 153.552C148.937 151.125 146.397 158.161 145.498 161.983C144.711 158.049 144.891 149.843 151.905 148.494C160.673 146.808 164.382 168.053 161.347 175.809Z" fill="black"/>
<path d="M356.274 179.179C356.274 200.428 370.859 217.654 388.851 217.654C406.843 217.654 410.451 203.226 421.428 179.179C428.941 157.208 431.915 141.85 410.451 142.183C392.458 142.183 356.274 157.929 356.274 179.179Z" fill="white"/>
<path d="M404.834 175.809C407.262 182.014 400.45 188.061 396.741 190.309L389.996 203.123C396.403 203.573 409.015 199.751 408.206 180.867C407.194 157.262 410.566 156.587 414.276 153.552C417.244 151.125 419.784 158.161 420.683 161.983C421.47 158.049 421.29 149.843 414.276 148.494C405.508 146.808 401.799 168.053 404.834 175.809Z" fill="black"/>
<path d="M411.512 113.692C411.512 176.483 354.594 305.591 284.382 305.591C214.17 305.591 157.251 176.483 157.251 113.692C157.251 50.9018 214.17 0 284.382 0C354.594 0 411.512 50.9018 411.512 113.692Z" fill="url(#paint1_linear_343_34)"/>
<path d="M271.5 234L292.5 234" stroke="white"/>
<path d="M272 234C272.8 233.2 284.667 223.5 291 219H328" stroke="white"/>
<path d="M307.5 215L308 193" stroke="white"/>
<path d="M334.5 108L254 234C248 245.5 239.5 248.5 230.5 243.5C223.3 239.5 223 231 225.5 225.5C225.5 225.5 295 101.5 300.5 92C306 82.5 317 81.5001 321 82.0001C325 82.5 327.743 83.6336 330 85.5C332.237 87.3497 332.758 88.1778 334.5 90.5C336 92.4998 336.831 94.0908 337 96.5C337.069 97.474 337.089 98.5276 337 99.5C336.5 105 334.5 108 334.5 108Z" stroke="white" stroke-width="2"/>
<path d="M328.5 84.5001C348.5 99 328.5 121.5 316 118.5C303.5 115.5 221.5 102 221.5 102C211.833 99.5 191.8 90.2001 197 65.0001C202.2 39.8001 230.5 37 243 42.0001C243 42.0001 308.5 70.0003 328.5 84.5001Z" stroke="white" stroke-width="2"/>
<path d="M307.5 194L320 188.5" stroke="white"/>
<path d="M307.5 197C308.881 197 310 195.881 310 194.5C310 193.119 308.881 192 307.5 192C306.119 192 305 193.119 305 194.5C305 195.881 306.119 197 307.5 197Z" fill="white"/>
<path d="M307.5 216C308.881 216 310 214.881 310 213.5C310 212.119 308.881 211 307.5 211C306.119 211 305 212.119 305 213.5C305 214.881 306.119 216 307.5 216Z" fill="white"/>
<path d="M328.5 221C329.881 221 331 219.881 331 218.5C331 217.119 329.881 216 328.5 216C327.119 216 326 217.119 326 218.5C326 219.881 327.119 221 328.5 221Z" fill="white"/>
<path d="M319.5 237C320.881 237 322 235.881 322 234.5C322 233.119 320.881 232 319.5 232C318.119 232 317 233.119 317 234.5C317 235.881 318.119 237 319.5 237Z" fill="white"/>
<path d="M338.5 231C339.881 231 341 229.881 341 228.5C341 227.119 339.881 226 338.5 226C337.119 226 336 227.119 336 228.5C336 229.881 337.119 231 338.5 231Z" fill="white"/>
<path d="M352.5 251C353.881 251 355 249.881 355 248.5C355 247.119 353.881 246 352.5 246C351.119 246 350 247.119 350 248.5C350 249.881 351.119 251 352.5 251Z" fill="white"/>
<path d="M302.5 237C303.881 237 305 235.881 305 234.5C305 233.119 303.881 232 302.5 232C301.119 232 300 233.119 300 234.5C300 235.881 301.119 237 302.5 237Z" fill="white"/>
<path d="M319.5 249C320.881 249 322 247.881 322 246.5C322 245.119 320.881 244 319.5 244C318.119 244 317 245.119 317 246.5C317 247.881 318.119 249 319.5 249Z" fill="white"/>
<path d="M320.5 278C321.881 278 323 276.881 323 275.5C323 274.119 321.881 273 320.5 273C319.119 273 318 274.119 318 275.5C318 276.881 319.119 278 320.5 278Z" fill="white"/>
<path d="M343.5 258C344.881 258 346 256.881 346 255.5C346 254.119 344.881 253 343.5 253C342.119 253 341 254.119 341 255.5C341 256.881 342.119 258 343.5 258Z" fill="white"/>
<path d="M342.5 200C343.881 200 345 198.881 345 197.5C345 196.119 343.881 195 342.5 195C341.119 195 340 196.119 340 197.5C340 198.881 341.119 200 342.5 200Z" fill="white"/>
<path d="M337.5 221C338.881 221 340 219.881 340 218.5C340 217.119 338.881 216 337.5 216C336.119 216 335 217.119 335 218.5C335 219.881 336.119 221 337.5 221Z" fill="white"/>
<path d="M357.5 221C358.881 221 360 219.881 360 218.5C360 217.119 358.881 216 357.5 216C356.119 216 355 217.119 355 218.5C355 219.881 356.119 221 357.5 221Z" fill="white"/>
<path d="M370.5 221C371.881 221 373 219.881 373 218.5C373 217.119 371.881 216 370.5 216C369.119 216 368 217.119 368 218.5C368 219.881 369.119 221 370.5 221Z" fill="white"/>
<path d="M353.5 207C354.881 207 356 205.881 356 204.5C356 203.119 354.881 202 353.5 202C352.119 202 351 203.119 351 204.5C351 205.881 352.119 207 353.5 207Z" fill="white"/>
<path d="M388.5 110C389.881 110 391 108.881 391 107.5C391 106.119 389.881 105 388.5 105C387.119 105 386 106.119 386 107.5C386 108.881 387.119 110 388.5 110Z" fill="white"/>
<path d="M396.5 120C397.881 120 399 118.881 399 117.5C399 116.119 397.881 115 396.5 115C395.119 115 394 116.119 394 117.5C394 118.881 395.119 120 396.5 120Z" fill="white"/>
<path d="M382.5 101C383.881 101 385 99.8807 385 98.5C385 97.1193 383.881 96 382.5 96C381.119 96 380 97.1193 380 98.5C380 99.8807 381.119 101 382.5 101Z" fill="white"/>
<path d="M318.5 191C319.881 191 321 189.881 321 188.5C321 187.119 319.881 186 318.5 186C317.119 186 316 187.119 316 188.5C316 189.881 317.119 191 318.5 191Z" fill="white"/>
<path d="M293.5 237C294.881 237 296 235.881 296 234.5C296 233.119 294.881 232 293.5 232C292.119 232 291 233.119 291 234.5C291 235.881 292.119 237 293.5 237Z" fill="white"/>
<path d="M293.5 249C294.881 249 296 247.881 296 246.5C296 245.119 294.881 244 293.5 244C292.119 244 291 245.119 291 246.5C291 247.881 292.119 249 293.5 249Z" fill="white"/>
<path d="M302.5 249C303.881 249 305 247.881 305 246.5C305 245.119 303.881 244 302.5 244C301.119 244 300 245.119 300 246.5C300 247.881 301.119 249 302.5 249Z" fill="white"/>
<path d="M302.5 290C303.881 290 305 288.881 305 287.5C305 286.119 303.881 285 302.5 285C301.119 285 300 286.119 300 287.5C300 288.881 301.119 290 302.5 290Z" fill="white"/>
<path d="M268.5 274C269.881 274 271 272.881 271 271.5C271 270.119 269.881 269 268.5 269C267.119 269 266 270.119 266 271.5C266 272.881 267.119 274 268.5 274Z" fill="white"/>
<path d="M338 218.5H358" stroke="white"/>
<path d="M307.5 207L323.5 198H342" stroke="white"/>
<path d="M303 234.5H320" stroke="white"/>
<path d="M320 247.5V274" stroke="white"/>
<path d="M351.5 205H357.5L371 195.5L370.5 218" stroke="white"/>
<path d="M338.5 228.5V240.5L352 248.294" stroke="white"/>
<path d="M320 262H332.5L343 256" stroke="white"/>
<path d="M370.5 196L382.5 184V98" stroke="white"/>
<path d="M396 159.5V116.5" stroke="white"/>
<path d="M388.5 164V106" stroke="white"/>
<path d="M382.5 167.5C383.3 167.038 391.833 161.694 396.5 159" stroke="white"/>
<path d="M293.5 245V257L267.519 272" stroke="white"/>
<path d="M302.5 246.5V287.5" stroke="white"/>
</g>
<defs>
<linearGradient id="paint0_linear_343_34" x1="197.488" y1="209.047" x2="197.488" y2="449.142" gradientUnits="userSpaceOnUse">
<stop stop-color="#999999"/>
<stop offset="1" stop-color="white"/>
</linearGradient>
<linearGradient id="paint1_linear_343_34" x1="284.382" y1="-87.5" x2="284.382" y2="711" gradientUnits="userSpaceOnUse">
<stop/>
<stop offset="1" stop-color="#666666"/>
</linearGradient>
<clipPath id="clip0_343_34">
<rect width="566" height="448" fill="white"/>
</clipPath>
</defs>
</svg>
