<svg width="429" height="429" viewBox="0 0 429 429" fill="none" xmlns="http://www.w3.org/2000/svg">
<path d="M214.5 0C260.774 0 303.625 14.6528 338.667 39.5713C341.798 36.2807 345.86 33.7825 350.594 32.5264C364.177 28.922 378.139 36.9048 381.778 50.3564C384.075 58.8454 381.71 67.4821 376.24 73.6064C409.098 111.294 429 160.573 429 214.5C429 332.965 332.965 429 214.5 429C96.0349 429 0 332.965 0 214.5C0 96.0349 96.0349 0 214.5 0ZM214.5 3C97.6918 3 3 97.6918 3 214.5C3 331.308 97.6918 426 214.5 426C331.308 426 426 331.308 426 214.5C426 161.398 406.429 112.867 374.108 75.7256C371.237 78.2592 367.742 80.1863 363.773 81.2393C350.191 84.8433 336.229 76.8606 332.59 63.4092C330.5 55.6849 332.268 47.8372 336.725 41.8721C302.21 17.3908 260.036 3 214.5 3Z" fill="white"/>
</svg>
