<svg width="88" height="88" viewBox="0 0 88 88" fill="none" xmlns="http://www.w3.org/2000/svg">
<path d="M43.7383 0C67.8943 0 87.4764 19.5823 87.4766 43.7383C87.4766 49.549 86.3395 55.0935 84.2822 60.166C86.2731 62.5079 87.4746 65.5419 87.4746 68.8564C87.4745 76.2706 81.464 82.2812 74.0498 82.2812C71.6328 82.2812 69.3653 81.6414 67.4062 80.5234C60.5836 84.9222 52.4596 87.4766 43.7383 87.4766C19.5823 87.4764 0 67.8943 0 43.7383C0.000153779 19.5824 19.5824 0.000144484 43.7383 0ZM43.7383 2.59863C21.0174 2.59878 2.59879 21.0174 2.59863 43.7383C2.59863 66.4593 21.0173 84.8788 43.7383 84.8789C51.5732 84.8789 58.8958 82.6873 65.1289 78.8857C62.3665 76.4269 60.6251 72.8456 60.625 68.8564C60.625 61.4422 66.6356 55.4317 74.0498 55.4316C77.1384 55.4316 79.9826 56.4755 82.251 58.2285C83.9477 53.7213 84.8789 48.8387 84.8789 43.7383C84.8788 21.0173 66.4593 2.59863 43.7383 2.59863Z" fill="white"/>
</svg>
