<svg width="88" height="96" viewBox="0 0 88 96" fill="none" xmlns="http://www.w3.org/2000/svg">
<path d="M43.7383 0C53.1605 0 61.8866 2.97986 69.0264 8.04785C70.3423 6.81698 72.1097 6.0625 74.0537 6.0625C78.1196 6.06252 81.416 9.35894 81.416 13.4248C81.416 15.3688 80.6605 17.1353 79.4297 18.4512C84.4972 25.5908 87.4765 34.3165 87.4766 43.7383C87.4766 67.7552 68.1193 87.2469 44.1553 87.4707C44.1638 87.6161 44.1689 87.7626 44.1689 87.9102C44.1689 91.976 40.8734 95.2724 36.8076 95.2725C32.7417 95.2725 29.4453 91.976 29.4453 87.9102C29.4453 86.973 29.6221 86.0773 29.9414 85.2529C12.5465 79.4748 0 63.0731 0 43.7383C4.36824e-05 37.6594 1.24137 31.8707 3.48242 26.6104C1.39243 25.3115 0 22.9962 0 20.3545C5.15402e-07 16.2886 3.29642 12.9922 7.3623 12.9922C8.87568 12.9923 10.2824 13.4493 11.4521 14.2324C19.4495 5.48633 30.9531 7.64723e-05 43.7383 0ZM43.7383 2.59863C31.6877 2.59871 20.8473 7.77996 13.3232 16.0361C14.2036 17.2493 14.7236 18.7409 14.7236 20.3545C14.7236 24.4203 11.428 27.7166 7.3623 27.7168C6.86141 27.7168 6.37222 27.6647 5.89941 27.5693C3.77572 32.5328 2.59868 37.9979 2.59863 43.7383C2.59863 62.1394 14.6799 77.7174 31.3428 82.9766C32.69 81.4852 34.6396 80.5479 36.8076 80.5479C39.7912 80.5479 42.3574 82.3245 43.5137 84.876C43.5885 84.8764 43.6634 84.8789 43.7383 84.8789C66.4594 84.8789 84.8789 66.4594 84.8789 43.7383C84.8788 34.9 82.091 26.7132 77.3477 20.0078C76.3563 20.5048 75.2382 20.7871 74.0537 20.7871C69.9879 20.7871 66.6914 17.4906 66.6914 13.4248C66.6914 12.2402 66.9726 11.1213 67.4697 10.1299C60.7641 5.38649 52.5768 2.59863 43.7383 2.59863Z" fill="white"/>
</svg>
