<svg width="93" height="96" viewBox="0 0 93 96" fill="none" xmlns="http://www.w3.org/2000/svg">
<path d="M48.9346 0C58.3568 0 67.0829 2.97984 74.2227 8.04785C75.5386 6.81706 77.3061 6.06348 79.25 6.06348C83.3158 6.06348 86.6122 9.35904 86.6123 13.4248C86.6123 15.3687 85.8567 17.1353 84.626 18.4512C89.6935 25.5908 92.6728 34.3165 92.6729 43.7383C92.6728 67.7546 73.3167 87.2459 49.3535 87.4707C49.362 87.6158 49.3672 87.762 49.3672 87.9092C49.3672 91.975 46.0717 95.2714 42.0059 95.2715C37.94 95.2715 34.6436 91.975 34.6436 87.9092C34.6436 86.9728 34.8199 86.0778 35.1387 85.2539C17.7432 79.4761 5.19631 63.0735 5.19629 43.7383C5.1963 42.3331 5.26495 40.9435 5.39453 39.5723C2.28411 38.7116 0 35.8628 0 32.4785C0.000154617 28.4129 3.29571 25.1174 7.36133 25.1172C8.00955 25.1172 8.63845 25.2011 9.2373 25.3584C16.1814 10.3856 31.344 0.000121433 48.9346 0ZM48.9346 2.59863C32.387 2.59875 18.1232 12.3691 11.5928 26.4551C13.4858 27.7872 14.7235 29.9879 14.7236 32.4785C14.7236 36.3353 11.7577 39.4972 7.98242 39.8125C7.86009 41.1047 7.79493 42.4141 7.79492 43.7383C7.79495 62.1397 19.8767 77.7176 36.54 82.9766C37.8873 81.4846 39.8373 80.5469 42.0059 80.5469C44.9899 80.5469 47.5569 82.3238 48.7129 84.876C48.7867 84.8764 48.8606 84.8789 48.9346 84.8789C71.6556 84.8789 90.0752 66.4593 90.0752 43.7383C90.0751 34.9 87.2873 26.7132 82.5439 20.0078C81.5526 20.5049 80.4345 20.7871 79.25 20.7871C75.1841 20.7871 71.8877 17.4907 71.8877 13.4248C71.8877 12.2402 72.1688 11.1213 72.666 10.1299C65.9604 5.38647 57.7731 2.59863 48.9346 2.59863Z" fill="white"/>
</svg>
