<svg width="429" height="429" viewBox="0 0 429 429" fill="none" xmlns="http://www.w3.org/2000/svg">
<path d="M214.5 0C263.814 0 309.241 16.6427 345.472 44.6162C347.462 42.7487 349.938 41.3313 352.772 40.5791C361.865 38.1665 371.21 43.5105 373.646 52.5146C375.094 57.8647 373.775 63.3026 370.561 67.3418C406.792 105.751 429 157.532 429 214.5C429 332.965 332.965 429 214.5 429C96.0349 429 0 332.965 0 214.5C0 96.0349 96.0349 0 214.5 0ZM214.5 3C97.6918 3 3 97.6918 3 214.5C3 331.308 97.6918 426 214.5 426C331.308 426 426 331.308 426 214.5C426 158.386 404.148 107.376 368.488 69.5166C366.571 71.2021 364.24 72.4846 361.595 73.1865C352.503 75.5989 343.158 70.2558 340.722 61.252C339.326 56.0923 340.502 50.8504 343.471 46.8604C307.774 19.3571 263.047 3 214.5 3Z" fill="white"/>
</svg>
