<svg width="367" height="193" viewBox="0 0 367 193" fill="none" xmlns="http://www.w3.org/2000/svg">
<path d="M122.929 5.44782C233.483 6.14401 324.842 87.2557 340.785 192.897H338.005C322.016 88.3265 231.178 8.18605 121.494 8.18594C90.6556 8.18594 61.3066 14.5215 34.692 25.9538L32.957 23.7138C60.077 11.9616 90.0199 5.44336 121.494 5.44336L122.929 5.44782Z" fill="white"/>
<path d="M329.794 176.607C344.753 172.689 360.077 179.861 366.637 192.967H309.444C313.356 185.184 320.552 179.028 329.794 176.607ZM25.6377 1.1602C44.0843 -3.67178 63.0448 7.03026 67.9878 25.0634C72.9306 43.0967 61.9836 61.6323 43.5369 66.4643C25.0904 71.2961 6.12969 60.5951 1.18676 42.5621C-3.75582 24.5289 7.19116 5.99228 25.6377 1.1602Z" fill="#BD67FF"/>
</svg>
