<svg width="1408" height="605" viewBox="0 0 1408 605" fill="none" xmlns="http://www.w3.org/2000/svg">
<rect width="66" height="66" rx="1" fill="#6B42FF"/>
<rect y="269" width="66" height="65" rx="1" fill="#6B42FF"/>
<rect y="135" width="66" height="65" rx="1" fill="#6B42FF"/>
<rect y="403" width="66" height="66" rx="1" fill="#6B42FF"/>
<rect x="135" width="64" height="66" rx="1" fill="#6B42FF"/>
<rect x="135" y="269" width="64" height="65" rx="1" fill="#6B42FF"/>
<rect x="135" y="135" width="64" height="65" rx="1" fill="white"/>
<rect x="135" y="403" width="64" height="66" rx="1" fill="white"/>
<rect x="268" width="65" height="66" rx="1" fill="#6B42FF"/>
<rect x="268" y="269" width="65" height="65" rx="1" fill="#6B42FF"/>
<rect x="268" y="135" width="65" height="65" rx="1" fill="#6B42FF"/>
<rect x="268" y="403" width="65" height="66" rx="1" fill="white"/>
<rect x="68" width="65" height="66" rx="1" fill="#6B42FF"/>
<rect x="68" y="135" width="65" height="65" rx="1" fill="white"/>
<rect x="68" y="403" width="65" height="66" rx="1" fill="white"/>
<rect x="201" width="65" height="66" rx="1" fill="#6B42FF"/>
<rect x="201" y="269" width="65" height="65" rx="1" fill="#6B42FF"/>
<rect x="201" y="135" width="65" height="65" rx="1" fill="white"/>
<rect x="201" y="403" width="65" height="66" rx="1" fill="white"/>
<rect x="335" width="65" height="66" rx="1" fill="#6B42FF"/>
<rect x="335" y="269" width="65" height="65" rx="1" fill="white"/>
<rect x="335" y="135" width="65" height="65" rx="1" fill="#6B42FF"/>
<rect x="335" y="403" width="65" height="66" rx="1" fill="#6B42FF"/>
<rect x="402" width="66" height="66" rx="1" fill="#6B42FF"/>
<rect x="402" y="269" width="66" height="65" rx="1" fill="#6B42FF"/>
<rect x="402" y="135" width="66" height="65" rx="1" fill="#6B42FF"/>
<rect x="402" y="403" width="66" height="66" rx="1" fill="#6B42FF"/>
<rect y="68" width="66" height="65" rx="1" fill="#6B42FF"/>
<rect y="336" width="66" height="65" rx="1" fill="#6B42FF"/>
<rect y="202" width="66" height="65" rx="1" fill="#6B42FF"/>
<rect y="471" width="66" height="66" rx="1" fill="#6B42FF"/>
<rect y="539" width="66" height="66" rx="1" fill="#6B42FF"/>
<rect x="135" y="68" width="64" height="65" rx="1" fill="#6B42FF"/>
<rect x="135" y="336" width="64" height="65" rx="1" fill="#6B42FF"/>
<rect x="135" y="202" width="64" height="65" rx="1" fill="#6B42FF"/>
<rect x="135" y="471" width="64" height="66" rx="1" fill="#6B42FF"/>
<rect x="135" y="539" width="64" height="66" rx="1" fill="#6B42FF"/>
<rect x="268" y="68" width="65" height="65" rx="1" fill="#6B42FF"/>
<rect x="268" y="336" width="65" height="65" rx="1" fill="#6B42FF"/>
<rect x="268" y="202" width="65" height="65" rx="1" fill="white"/>
<rect x="268" y="471" width="65" height="66" rx="1" fill="#6B42FF"/>
<rect x="268" y="539" width="65" height="66" rx="1" fill="#6B42FF"/>
<rect x="68" y="68" width="65" height="65" rx="1" fill="#6B42FF"/>
<rect x="68" y="336" width="65" height="65" rx="1" fill="white"/>
<rect x="68" y="471" width="65" height="66" rx="1" fill="#6B42FF"/>
<rect x="68" y="539" width="65" height="66" rx="1" fill="#6B42FF"/>
<rect x="201" y="68" width="65" height="65" rx="1" fill="#6B42FF"/>
<rect x="201" y="336" width="65" height="65" rx="1" fill="#6B42FF"/>
<rect x="201" y="202" width="65" height="65" rx="1" fill="#6B42FF"/>
<rect x="201" y="471" width="65" height="66" rx="1" fill="#6B42FF"/>
<rect x="201" y="539" width="65" height="66" rx="1" fill="#6B42FF"/>
<rect x="335" y="68" width="65" height="65" rx="1" fill="#6B42FF"/>
<rect x="335" y="336" width="65" height="65" rx="1" fill="white"/>
<rect x="135" y="135" width="64" height="65" rx="1" fill="white"/>
<rect x="68" y="269" width="65" height="65" rx="1" fill="white"/>
<rect x="68" y="135" width="65" height="65" rx="1" fill="white"/>
<rect x="201" y="135" width="65" height="65" rx="1" fill="white"/>
<rect x="68" y="202" width="65" height="65" rx="1" fill="white"/>
<rect x="335" y="202" width="65" height="65" rx="1" fill="#6B42FF"/>
<rect x="335" y="471" width="65" height="66" rx="1" fill="#6B42FF"/>
<rect x="335" y="539" width="65" height="66" rx="1" fill="#6B42FF"/>
<rect x="402" y="68" width="66" height="65" rx="1" fill="#6B42FF"/>
<rect x="402" y="336" width="66" height="65" rx="1" fill="#6B42FF"/>
<rect x="402" y="202" width="66" height="65" rx="1" fill="#6B42FF"/>
<rect x="402" y="471" width="66" height="66" rx="1" fill="#6B42FF"/>
<rect x="402" y="539" width="66" height="66" rx="1" fill="#6B42FF"/>
<path d="M470 0H536V66H470V0Z" fill="#6B42FF"/>
<rect x="470" y="269" width="66" height="65" fill="#6B42FF"/>
<rect x="470" y="135" width="66" height="65" fill="#6B42FF"/>
<rect x="470" y="403" width="66" height="66" fill="#6B42FF"/>
<rect x="605" width="64" height="66" fill="#6B42FF"/>
<rect x="605" y="269" width="64" height="65" fill="white"/>
<rect x="605" y="135" width="64" height="65" fill="white"/>
<rect x="605" y="403" width="64" height="66" fill="#6B42FF"/>
<rect x="738" width="65" height="66" fill="#6B42FF"/>
<rect x="738" y="269" width="65" height="65" fill="white"/>
<rect x="738" y="135" width="65" height="65" fill="#6B42FF"/>
<rect x="738" y="403" width="65" height="66" fill="#6B42FF"/>
<rect x="538" width="65" height="66" fill="#6B42FF"/>
<rect x="538" y="135" width="65" height="65" fill="white"/>
<rect x="538" y="403" width="65" height="66" fill="white"/>
<rect x="671" width="65" height="66" fill="#6B42FF"/>
<rect x="671" y="269" width="65" height="65" fill="white"/>
<rect x="671" y="135" width="65" height="65" fill="white"/>
<rect x="671" y="403" width="65" height="66" fill="#6B42FF"/>
<rect x="805" width="65" height="66" fill="#6B42FF"/>
<rect x="805" y="269" width="65" height="65" fill="white"/>
<rect x="805" y="135" width="65" height="65" fill="white"/>
<rect x="805" y="403" width="65" height="66" fill="white"/>
<path d="M872 0H938V66H872V0Z" fill="#6B42FF"/>
<rect x="872" y="269" width="66" height="65" fill="#6B42FF"/>
<rect x="872" y="135" width="66" height="65" fill="#6B42FF"/>
<rect x="872" y="403" width="66" height="66" fill="#6B42FF"/>
<rect x="470" y="68" width="66" height="65" fill="#6B42FF"/>
<rect x="470" y="336" width="66" height="65" fill="#6B42FF"/>
<rect x="470" y="202" width="66" height="65" fill="#6B42FF"/>
<rect x="470" y="471" width="66" height="66" fill="#6B42FF"/>
<rect x="470" y="539" width="66" height="66" fill="#6B42FF"/>
<rect x="605" y="68" width="64" height="65" fill="#6B42FF"/>
<rect x="605" y="336" width="64" height="65" fill="#6B42FF"/>
<rect x="605" y="202" width="64" height="65" fill="#6B42FF"/>
<rect x="605" y="471" width="64" height="66" fill="#6B42FF"/>
<rect x="605" y="539" width="64" height="66" fill="#6B42FF"/>
<rect x="738" y="68" width="65" height="65" fill="#6B42FF"/>
<rect x="738" y="336" width="65" height="65" fill="#6B42FF"/>
<rect x="738" y="202" width="65" height="65" fill="#6B42FF"/>
<rect x="738" y="471" width="65" height="66" fill="#6B42FF"/>
<rect x="738" y="539" width="65" height="66" fill="#6B42FF"/>
<rect x="538" y="68" width="65" height="65" fill="#6B42FF"/>
<rect x="538" y="336" width="65" height="65" fill="white"/>
<rect x="538" y="471" width="65" height="66" fill="#6B42FF"/>
<rect x="538" y="539" width="65" height="66" fill="#6B42FF"/>
<rect x="671" y="68" width="65" height="65" fill="#6B42FF"/>
<rect x="671" y="336" width="65" height="65" fill="#6B42FF"/>
<rect x="671" y="202" width="65" height="65" fill="#6B42FF"/>
<rect x="671" y="471" width="65" height="66" fill="#6B42FF"/>
<rect x="671" y="539" width="65" height="66" fill="#6B42FF"/>
<rect x="805" y="68" width="65" height="65" fill="#6B42FF"/>
<rect x="805" y="336" width="65" height="65" fill="white"/>
<rect x="605" y="135" width="64" height="65" fill="#6B42FF"/>
<rect x="538" y="269" width="65" height="65" fill="white"/>
<rect x="538" y="135" width="65" height="65" fill="white"/>
<rect x="671" y="135" width="65" height="65" fill="#6B42FF"/>
<rect x="538" y="202" width="65" height="65" fill="white"/>
<rect x="805" y="202" width="65" height="65" fill="white"/>
<rect x="805" y="471" width="65" height="66" fill="#6B42FF"/>
<rect x="805" y="539" width="65" height="66" fill="#6B42FF"/>
<rect x="872" y="68" width="66" height="65" fill="#6B42FF"/>
<rect x="872" y="336" width="66" height="65" fill="#6B42FF"/>
<rect x="872" y="202" width="66" height="65" fill="#6B42FF"/>
<rect x="872" y="471" width="66" height="66" fill="#6B42FF"/>
<path d="M872 539H938V605H872V539Z" fill="#6B42FF"/>
<path d="M940 0H1006V66H940V0Z" fill="#6B42FF"/>
<rect x="940" y="269" width="66" height="65" fill="#6B42FF"/>
<rect x="940" y="135" width="66" height="65" fill="#6B42FF"/>
<rect x="940" y="403" width="66" height="66" fill="#6B42FF"/>
<rect x="1075" width="64" height="66" fill="#6B42FF"/>
<rect x="1075" y="269" width="64" height="65" fill="white"/>
<rect x="1075" y="135" width="64" height="65" fill="white"/>
<rect x="1075" y="403" width="64" height="66" fill="white"/>
<rect x="1208" width="65" height="66" fill="#6B42FF"/>
<rect x="1208" y="269" width="65" height="65" fill="white"/>
<rect x="1208" y="135" width="65" height="65" fill="white"/>
<rect x="1208" y="403" width="65" height="66" fill="white"/>
<rect x="1008" width="65" height="66" fill="#6B42FF"/>
<rect x="1008" y="135" width="65" height="65" fill="white"/>
<rect x="1008" y="403" width="65" height="66" fill="white"/>
<rect x="1141" width="65" height="66" fill="#6B42FF"/>
<rect x="1141" y="269" width="65" height="65" fill="white"/>
<rect x="1141" y="135" width="65" height="65" fill="white"/>
<rect x="1141" y="403" width="65" height="66" fill="white"/>
<rect x="1275" width="65" height="66" fill="#6B42FF"/>
<rect x="1275" y="269" width="65" height="65" fill="white"/>
<rect x="1275" y="135" width="65" height="65" fill="white"/>
<rect x="1275" y="403" width="65" height="66" fill="white"/>
<path d="M1342 0H1408V66H1342V0Z" fill="#6B42FF"/>
<rect x="1342" y="269" width="66" height="65" fill="#6B42FF"/>
<rect x="1342" y="135" width="66" height="65" fill="#6B42FF"/>
<rect x="1342" y="403" width="66" height="66" fill="#6B42FF"/>
<rect x="940" y="68" width="66" height="65" fill="#6B42FF"/>
<rect x="940" y="336" width="66" height="65" fill="#6B42FF"/>
<rect x="940" y="202" width="66" height="65" fill="#6B42FF"/>
<rect x="940" y="471" width="66" height="66" fill="#6B42FF"/>
<rect x="940" y="539" width="66" height="66" fill="#6B42FF"/>
<rect x="1075" y="68" width="64" height="65" fill="#6B42FF"/>
<rect x="1075" y="336" width="64" height="65" fill="#6B42FF"/>
<rect x="1075" y="202" width="64" height="65" fill="#6B42FF"/>
<rect x="1075" y="471" width="64" height="66" fill="#6B42FF"/>
<rect x="1075" y="539" width="64" height="66" fill="#6B42FF"/>
<rect x="1208" y="68" width="65" height="65" fill="#6B42FF"/>
<rect x="1208" y="336" width="65" height="65" fill="#6B42FF"/>
<rect x="1208" y="202" width="65" height="65" fill="#6B42FF"/>
<rect x="1208" y="471" width="65" height="66" fill="#6B42FF"/>
<rect x="1208" y="539" width="65" height="66" fill="#6B42FF"/>
<rect x="1008" y="68" width="65" height="65" fill="#6B42FF"/>
<rect x="1008" y="336" width="65" height="65" fill="white"/>
<rect x="1008" y="471" width="65" height="66" fill="#6B42FF"/>
<rect x="1008" y="539" width="65" height="66" fill="#6B42FF"/>
<rect x="1141" y="68" width="65" height="65" fill="#6B42FF"/>
<rect x="1141" y="336" width="65" height="65" fill="#6B42FF"/>
<rect x="1141" y="202" width="65" height="65" fill="#6B42FF"/>
<rect x="1141" y="471" width="65" height="66" fill="#6B42FF"/>
<rect x="1141" y="539" width="65" height="66" fill="#6B42FF"/>
<rect x="1275" y="68" width="65" height="65" fill="#6B42FF"/>
<rect x="1275" y="336" width="65" height="65" fill="#6B42FF"/>
<rect x="1075" y="135" width="64" height="65" fill="white"/>
<rect x="1008" y="269" width="65" height="65" fill="white"/>
<rect x="1008" y="135" width="65" height="65" fill="white"/>
<rect x="1141" y="135" width="65" height="65" fill="white"/>
<rect x="1008" y="202" width="65" height="65" fill="white"/>
<rect x="1275" y="202" width="65" height="65" fill="#6B42FF"/>
<rect x="1275" y="471" width="65" height="66" fill="#6B42FF"/>
<rect x="1275" y="539" width="65" height="66" fill="#6B42FF"/>
<rect x="1342" y="68" width="66" height="65" fill="#6B42FF"/>
<rect x="1342" y="336" width="66" height="65" fill="#6B42FF"/>
<rect x="1342" y="202" width="66" height="65" fill="#6B42FF"/>
<rect x="1342" y="471" width="66" height="66" fill="#6B42FF"/>
<path d="M1342 539H1408V605H1342V539Z" fill="#6B42FF"/>
</svg>
