<svg width="1404" height="605" viewBox="0 0 1404 605" fill="none" xmlns="http://www.w3.org/2000/svg">
<rect width="66" height="66" rx="1" fill="#6B42FF"/>
<rect y="269" width="66" height="65" rx="1" fill="#6B42FF"/>
<rect y="135" width="66" height="65" rx="1" fill="#6B42FF"/>
<rect y="403" width="66" height="66" rx="1" fill="#6B42FF"/>
<rect x="135" width="64" height="66" rx="1" fill="#6B42FF"/>
<rect x="135" y="269" width="64" height="65" rx="1" fill="#6B42FF"/>
<rect x="135" y="135" width="64" height="65" rx="1" fill="white"/>
<rect x="135" y="403" width="64" height="66" rx="1" fill="white"/>
<rect x="268" width="65" height="66" rx="1" fill="#6B42FF"/>
<rect x="268" y="269" width="65" height="65" rx="1" fill="#6B42FF"/>
<rect x="268" y="135" width="65" height="65" rx="1" fill="#6B42FF"/>
<rect x="268" y="403" width="65" height="66" rx="1" fill="white"/>
<rect x="68" width="65" height="66" rx="1" fill="#6B42FF"/>
<rect x="68" y="135" width="65" height="65" rx="1" fill="white"/>
<rect x="68" y="403" width="65" height="66" rx="1" fill="white"/>
<rect x="201" width="65" height="66" rx="1" fill="#6B42FF"/>
<rect x="201" y="269" width="65" height="65" rx="1" fill="#6B42FF"/>
<rect x="201" y="135" width="65" height="65" rx="1" fill="white"/>
<rect x="201" y="403" width="65" height="66" rx="1" fill="white"/>
<rect x="335" width="65" height="66" rx="1" fill="#6B42FF"/>
<rect x="335" y="269" width="65" height="65" rx="1" fill="white"/>
<rect x="335" y="135" width="65" height="65" rx="1" fill="#6B42FF"/>
<rect x="335" y="403" width="65" height="66" rx="1" fill="#6B42FF"/>
<rect x="402" width="66" height="66" rx="1" fill="#6B42FF"/>
<rect x="402" y="269" width="66" height="65" rx="1" fill="#6B42FF"/>
<rect x="402" y="135" width="66" height="65" rx="1" fill="#6B42FF"/>
<rect x="402" y="403" width="66" height="66" rx="1" fill="#6B42FF"/>
<rect y="68" width="66" height="65" rx="1" fill="#6B42FF"/>
<rect y="336" width="66" height="65" rx="1" fill="#6B42FF"/>
<rect y="202" width="66" height="65" rx="1" fill="#6B42FF"/>
<rect y="471" width="66" height="66" rx="1" fill="#6B42FF"/>
<rect y="539" width="66" height="66" rx="1" fill="#6B42FF"/>
<rect x="135" y="68" width="64" height="65" rx="1" fill="#6B42FF"/>
<rect x="135" y="336" width="64" height="65" rx="1" fill="#6B42FF"/>
<rect x="135" y="202" width="64" height="65" rx="1" fill="#6B42FF"/>
<rect x="135" y="471" width="64" height="66" rx="1" fill="#6B42FF"/>
<rect x="135" y="539" width="64" height="66" rx="1" fill="#6B42FF"/>
<rect x="268" y="68" width="65" height="65" rx="1" fill="#6B42FF"/>
<rect x="268" y="336" width="65" height="65" rx="1" fill="#6B42FF"/>
<rect x="268" y="202" width="65" height="65" rx="1" fill="white"/>
<rect x="268" y="471" width="65" height="66" rx="1" fill="#6B42FF"/>
<rect x="268" y="539" width="65" height="66" rx="1" fill="#6B42FF"/>
<rect x="68" y="68" width="65" height="65" rx="1" fill="#6B42FF"/>
<rect x="68" y="336" width="65" height="65" rx="1" fill="white"/>
<rect x="68" y="471" width="65" height="66" rx="1" fill="#6B42FF"/>
<rect x="68" y="539" width="65" height="66" rx="1" fill="#6B42FF"/>
<rect x="201" y="68" width="65" height="65" rx="1" fill="#6B42FF"/>
<rect x="201" y="336" width="65" height="65" rx="1" fill="#6B42FF"/>
<rect x="201" y="202" width="65" height="65" rx="1" fill="#6B42FF"/>
<rect x="201" y="471" width="65" height="66" rx="1" fill="#6B42FF"/>
<rect x="201" y="539" width="65" height="66" rx="1" fill="#6B42FF"/>
<rect x="335" y="68" width="65" height="65" rx="1" fill="#6B42FF"/>
<rect x="335" y="336" width="65" height="65" rx="1" fill="white"/>
<rect x="135" y="135" width="64" height="65" rx="1" fill="white"/>
<rect x="68" y="269" width="65" height="65" rx="1" fill="white"/>
<rect x="68" y="135" width="65" height="65" rx="1" fill="white"/>
<rect x="201" y="135" width="65" height="65" rx="1" fill="white"/>
<rect x="68" y="202" width="65" height="65" rx="1" fill="white"/>
<rect x="335" y="202" width="65" height="65" rx="1" fill="#6B42FF"/>
<rect x="335" y="471" width="65" height="66" rx="1" fill="#6B42FF"/>
<rect x="335" y="539" width="65" height="66" rx="1" fill="#6B42FF"/>
<rect x="402" y="68" width="66" height="65" rx="1" fill="#6B42FF"/>
<rect x="402" y="336" width="66" height="65" rx="1" fill="#6B42FF"/>
<rect x="402" y="202" width="66" height="65" rx="1" fill="#6B42FF"/>
<rect x="402" y="471" width="66" height="66" rx="1" fill="#6B42FF"/>
<rect x="402" y="539" width="66" height="66" rx="1" fill="#6B42FF"/>
<path d="M468 0H534V66H468V0Z" fill="#6B42FF"/>
<rect x="468" y="269" width="66" height="65" fill="#6B42FF"/>
<rect x="468" y="135" width="66" height="65" fill="#6B42FF"/>
<rect x="468" y="403" width="66" height="66" fill="#6B42FF"/>
<rect x="603" width="64" height="66" fill="#6B42FF"/>
<rect x="603" y="269" width="64" height="65" fill="white"/>
<rect x="603" y="135" width="64" height="65" fill="white"/>
<rect x="603" y="403" width="64" height="66" fill="#6B42FF"/>
<rect x="736" width="65" height="66" fill="#6B42FF"/>
<rect x="736" y="269" width="65" height="65" fill="white"/>
<rect x="736" y="135" width="65" height="65" fill="#6B42FF"/>
<rect x="736" y="403" width="65" height="66" fill="#6B42FF"/>
<rect x="536" width="65" height="66" fill="#6B42FF"/>
<rect x="536" y="135" width="65" height="65" fill="white"/>
<rect x="536" y="403" width="65" height="66" fill="white"/>
<rect x="669" width="65" height="66" fill="#6B42FF"/>
<rect x="669" y="269" width="65" height="65" fill="white"/>
<rect x="669" y="135" width="65" height="65" fill="white"/>
<rect x="669" y="403" width="65" height="66" fill="#6B42FF"/>
<rect x="803" width="65" height="66" fill="#6B42FF"/>
<rect x="803" y="269" width="65" height="65" fill="white"/>
<rect x="803" y="135" width="65" height="65" fill="white"/>
<rect x="803" y="403" width="65" height="66" fill="white"/>
<path d="M870 0H936V66H870V0Z" fill="#6B42FF"/>
<rect x="870" y="269" width="66" height="65" fill="#6B42FF"/>
<rect x="870" y="135" width="66" height="65" fill="#6B42FF"/>
<rect x="870" y="403" width="66" height="66" fill="#6B42FF"/>
<rect x="468" y="68" width="66" height="65" fill="#6B42FF"/>
<rect x="468" y="336" width="66" height="65" fill="#6B42FF"/>
<rect x="468" y="202" width="66" height="65" fill="#6B42FF"/>
<rect x="468" y="471" width="66" height="66" fill="#6B42FF"/>
<rect x="468" y="539" width="66" height="66" fill="#6B42FF"/>
<rect x="603" y="68" width="64" height="65" fill="#6B42FF"/>
<rect x="603" y="336" width="64" height="65" fill="#6B42FF"/>
<rect x="603" y="202" width="64" height="65" fill="#6B42FF"/>
<rect x="603" y="471" width="64" height="66" fill="#6B42FF"/>
<rect x="603" y="539" width="64" height="66" fill="#6B42FF"/>
<rect x="736" y="68" width="65" height="65" fill="#6B42FF"/>
<rect x="736" y="336" width="65" height="65" fill="#6B42FF"/>
<rect x="736" y="202" width="65" height="65" fill="#6B42FF"/>
<rect x="736" y="471" width="65" height="66" fill="#6B42FF"/>
<rect x="736" y="539" width="65" height="66" fill="#6B42FF"/>
<rect x="536" y="68" width="65" height="65" fill="#6B42FF"/>
<rect x="536" y="336" width="65" height="65" fill="white"/>
<rect x="536" y="471" width="65" height="66" fill="#6B42FF"/>
<rect x="536" y="539" width="65" height="66" fill="#6B42FF"/>
<rect x="669" y="68" width="65" height="65" fill="#6B42FF"/>
<rect x="669" y="336" width="65" height="65" fill="#6B42FF"/>
<rect x="669" y="202" width="65" height="65" fill="#6B42FF"/>
<rect x="669" y="471" width="65" height="66" fill="#6B42FF"/>
<rect x="669" y="539" width="65" height="66" fill="#6B42FF"/>
<rect x="803" y="68" width="65" height="65" fill="#6B42FF"/>
<rect x="803" y="336" width="65" height="65" fill="white"/>
<rect x="603" y="135" width="64" height="65" fill="#6B42FF"/>
<rect x="536" y="269" width="65" height="65" fill="white"/>
<rect x="536" y="135" width="65" height="65" fill="white"/>
<rect x="669" y="135" width="65" height="65" fill="#6B42FF"/>
<rect x="536" y="202" width="65" height="65" fill="white"/>
<rect x="803" y="202" width="65" height="65" fill="white"/>
<rect x="803" y="471" width="65" height="66" fill="#6B42FF"/>
<rect x="803" y="539" width="65" height="66" fill="#6B42FF"/>
<rect x="870" y="68" width="66" height="65" fill="#6B42FF"/>
<rect x="870" y="336" width="66" height="65" fill="#6B42FF"/>
<rect x="870" y="202" width="66" height="65" fill="#6B42FF"/>
<rect x="870" y="471" width="66" height="66" fill="#6B42FF"/>
<path d="M870 539H936V605H870V539Z" fill="#6B42FF"/>
<path d="M936 0H1002V66H936V0Z" fill="#6B42FF"/>
<rect x="936" y="269" width="66" height="65" fill="#6B42FF"/>
<rect x="936" y="135" width="66" height="65" fill="#6B42FF"/>
<rect x="936" y="403" width="66" height="66" fill="#6B42FF"/>
<rect x="1071" width="64" height="66" fill="#6B42FF"/>
<rect x="1071" y="269" width="64" height="65" fill="white"/>
<rect x="1071" y="135" width="64" height="65" fill="white"/>
<rect x="1071" y="403" width="64" height="66" fill="white"/>
<rect x="1204" width="65" height="66" fill="#6B42FF"/>
<rect x="1204" y="269" width="65" height="65" fill="white"/>
<rect x="1204" y="135" width="65" height="65" fill="white"/>
<rect x="1204" y="403" width="65" height="66" fill="white"/>
<rect x="1004" width="65" height="66" fill="#6B42FF"/>
<rect x="1004" y="135" width="65" height="65" fill="white"/>
<rect x="1004" y="403" width="65" height="66" fill="white"/>
<rect x="1137" width="65" height="66" fill="#6B42FF"/>
<rect x="1137" y="269" width="65" height="65" fill="white"/>
<rect x="1137" y="135" width="65" height="65" fill="white"/>
<rect x="1137" y="403" width="65" height="66" fill="white"/>
<rect x="1271" width="65" height="66" fill="#6B42FF"/>
<rect x="1271" y="269" width="65" height="65" fill="white"/>
<rect x="1271" y="135" width="65" height="65" fill="white"/>
<rect x="1271" y="403" width="65" height="66" fill="white"/>
<path d="M1338 0H1404V66H1338V0Z" fill="#6B42FF"/>
<rect x="1338" y="269" width="66" height="65" fill="#6B42FF"/>
<rect x="1338" y="135" width="66" height="65" fill="#6B42FF"/>
<rect x="1338" y="403" width="66" height="66" fill="#6B42FF"/>
<rect x="936" y="68" width="66" height="65" fill="#6B42FF"/>
<rect x="936" y="336" width="66" height="65" fill="#6B42FF"/>
<rect x="936" y="202" width="66" height="65" fill="#6B42FF"/>
<rect x="936" y="471" width="66" height="66" fill="#6B42FF"/>
<rect x="936" y="539" width="66" height="66" fill="#6B42FF"/>
<rect x="1071" y="68" width="64" height="65" fill="#6B42FF"/>
<rect x="1071" y="336" width="64" height="65" fill="#6B42FF"/>
<rect x="1071" y="202" width="64" height="65" fill="#6B42FF"/>
<rect x="1071" y="471" width="64" height="66" fill="#6B42FF"/>
<rect x="1071" y="539" width="64" height="66" fill="#6B42FF"/>
<rect x="1204" y="68" width="65" height="65" fill="#6B42FF"/>
<rect x="1204" y="336" width="65" height="65" fill="#6B42FF"/>
<rect x="1204" y="202" width="65" height="65" fill="#6B42FF"/>
<rect x="1204" y="471" width="65" height="66" fill="#6B42FF"/>
<rect x="1204" y="539" width="65" height="66" fill="#6B42FF"/>
<rect x="1004" y="68" width="65" height="65" fill="#6B42FF"/>
<rect x="1004" y="336" width="65" height="65" fill="white"/>
<rect x="1004" y="471" width="65" height="66" fill="#6B42FF"/>
<rect x="1004" y="539" width="65" height="66" fill="#6B42FF"/>
<rect x="1137" y="68" width="65" height="65" fill="#6B42FF"/>
<rect x="1137" y="336" width="65" height="65" fill="#6B42FF"/>
<rect x="1137" y="202" width="65" height="65" fill="#6B42FF"/>
<rect x="1137" y="471" width="65" height="66" fill="#6B42FF"/>
<rect x="1137" y="539" width="65" height="66" fill="#6B42FF"/>
<rect x="1271" y="68" width="65" height="65" fill="#6B42FF"/>
<rect x="1271" y="336" width="65" height="65" fill="#6B42FF"/>
<rect x="1071" y="135" width="64" height="65" fill="white"/>
<rect x="1004" y="269" width="65" height="65" fill="white"/>
<rect x="1004" y="135" width="65" height="65" fill="white"/>
<rect x="1137" y="135" width="65" height="65" fill="white"/>
<rect x="1004" y="202" width="65" height="65" fill="white"/>
<rect x="1271" y="202" width="65" height="65" fill="#6B42FF"/>
<rect x="1271" y="471" width="65" height="66" fill="#6B42FF"/>
<rect x="1271" y="539" width="65" height="66" fill="#6B42FF"/>
<rect x="1338" y="68" width="66" height="65" fill="#6B42FF"/>
<rect x="1338" y="336" width="66" height="65" fill="#6B42FF"/>
<rect x="1338" y="202" width="66" height="65" fill="#6B42FF"/>
<rect x="1338" y="471" width="66" height="66" fill="#6B42FF"/>
<path d="M1338 539H1404V605H1338V539Z" fill="#6B42FF"/>
</svg>
