<svg width="547" height="218" viewBox="0 0 547 218" fill="none" xmlns="http://www.w3.org/2000/svg">
<path d="M53.0195 192.074H136.454" stroke="#2300D2" stroke-width="2.33245"/>
<path d="M146.229 191.206L165.133 172.304H360.899L383.713 195.117H546.67" stroke="#2300D2" stroke-width="2.33245"/>
<path d="M28.4629 160.789C44.1814 160.789 56.9236 173.531 56.9238 189.25C56.9238 204.969 44.1815 217.712 28.4629 217.712C12.7444 217.712 0.00195312 204.969 0.00195312 189.25C0.00216865 173.531 12.7445 160.789 28.4629 160.789ZM28.4639 195.966C22.8125 195.966 18.2305 200.548 18.2305 206.199C18.2305 211.851 17.7588 197.57 28.4639 197.245C39.0194 196.925 38.6973 211.851 38.6973 206.199C38.6972 200.548 34.1155 195.966 28.4639 195.966ZM39.5264 188.777C30.7328 188.777 31.6914 179.71 31.6914 184.014C31.6914 187.956 34.6341 191.213 38.4531 191.733C38.4043 191.91 38.377 192.096 38.377 192.288C38.377 193.436 39.3083 194.367 40.4561 194.367C41.6038 194.367 42.5342 193.436 42.5342 192.288C42.5341 191.934 42.4445 191.601 42.2881 191.309C45.2519 190.197 47.3613 187.351 47.3613 184.014C47.3614 179.71 47.8403 189.25 39.5264 188.777ZM17.1113 188.777C8.31781 188.777 9.27631 179.71 9.27637 184.014C9.27637 188.318 12.7845 191.808 17.1113 191.809C21.4382 191.808 24.9463 188.318 24.9463 184.014C24.9463 179.71 25.4253 189.25 17.1113 188.777Z" fill="#2300D2"/>
<ellipse cx="136.67" cy="191.857" rx="2.39004" ry="2.38989" fill="#2300D2"/>
<ellipse cx="147.1" cy="189.685" rx="2.39004" ry="2.38989" fill="#2300D2"/>
<path d="M28.4629 80.3945C44.1826 80.3945 56.9265 93.1378 56.9268 108.857C56.9268 124.577 44.1827 137.321 28.4629 137.321C12.7434 137.321 0 124.577 0 108.857C0.000209703 93.138 12.7435 80.3948 28.4629 80.3945ZM28.3037 112.057C26.4494 112.057 24.9464 114.921 24.9463 118.453C24.9464 121.985 26.4494 124.848 28.3037 124.849C30.1582 124.849 31.662 121.985 31.6621 118.453C31.662 114.921 30.1583 112.057 28.3037 112.057ZM18.8711 98.625C17.2816 98.6252 15.9923 100.916 15.9922 103.742C15.9922 106.568 17.2815 108.859 18.8711 108.859C20.4605 108.859 21.749 106.568 21.749 103.742C21.7489 100.917 20.4605 98.6254 18.8711 98.625ZM38.0586 98.625C36.4692 98.6253 35.1807 100.916 35.1807 103.742C35.1807 106.568 36.4691 108.859 38.0586 108.859C39.6482 108.859 40.9375 106.568 40.9375 103.742C40.9374 100.916 39.6482 98.625 38.0586 98.625Z" fill="#5A2FFC"/>
<path d="M9.59686 83.9127C9.59686 83.9127 9.4113 88.0046 11.1959 89.7892C12.9805 91.5738 17.2723 91.5881 17.2723 91.5881C17.2723 91.5881 12.9805 91.7224 11.1959 93.507C9.4113 95.2916 9.59686 99.2636 9.59686 99.2636C9.59686 99.2636 9.34268 95.2916 7.55806 93.507C5.77345 91.7224 1.92139 91.5881 1.92139 91.5881C1.92139 91.5881 5.77345 91.5738 7.55806 89.7892C9.34268 88.0046 9.59686 83.9127 9.59686 83.9127Z" fill="#997EFF"/>
<path d="M546.672 102.2H476.758L448.294 130.664H410.648C410.215 131.272 409.506 131.67 408.702 131.67C407.899 131.67 407.19 131.272 406.757 130.664H406.746V130.649C406.474 130.261 406.312 129.789 406.312 129.279C406.313 127.96 407.382 126.89 408.702 126.89C409.685 126.89 410.528 127.483 410.896 128.331H447.328L475.45 100.21L475.791 99.8682H546.672V102.2ZM125.373 106.899C126.177 106.9 126.887 107.298 127.32 107.907H364.253L364.523 108.063L392.58 124.261C392.963 124 393.425 123.849 393.923 123.849C395.243 123.849 396.313 124.918 396.313 126.238C396.313 127.113 395.842 127.874 395.142 128.291L395.08 128.398L395.017 128.361C394.689 128.531 394.317 128.628 393.923 128.628C392.642 128.628 391.599 127.62 391.539 126.354L363.628 110.239H127.565C127.198 111.086 126.355 111.68 125.373 111.68C124.053 111.68 122.983 110.61 122.982 109.29C122.982 107.97 124.053 106.899 125.373 106.899ZM110.598 106.899C111.402 106.9 112.112 107.298 112.545 107.907H112.771V108.298C112.909 108.6 112.987 108.936 112.987 109.29C112.987 110.61 111.917 111.68 110.598 111.68C109.615 111.68 108.773 111.086 108.405 110.239H54.1055V107.907H108.649C109.083 107.298 109.793 106.899 110.598 106.899Z" fill="#5A2FFC"/>
<path d="M28.4629 0C44.1825 0 56.9265 12.7433 56.9268 28.4629C56.9268 44.1827 44.1827 56.9268 28.4629 56.9268C12.7434 56.9265 0 44.1825 0 28.4629C0.000289348 12.7435 12.7435 0.000307138 28.4629 0ZM28.502 39.8174C17.7961 39.4928 18.2685 30.8502 18.2686 36.502C18.2687 42.1537 22.8502 46.7351 28.502 46.7354C34.1539 46.7354 38.7362 42.1539 38.7363 36.502C38.7363 30.8501 39.0582 40.1372 28.502 39.8174ZM39.5488 16.8242C35.2315 16.8243 31.7305 18.0543 31.7305 24.8193C31.7304 31.584 30.7744 21.5871 39.5488 21.5869C47.8445 20.8443 47.3662 35.8384 47.3662 29.0732C47.3661 22.3083 43.8661 16.8245 39.5488 16.8242ZM17.1621 16.6309C12.8448 16.6311 9.34379 22.1158 9.34375 28.8809C9.34372 35.6453 8.38767 21.3948 17.1621 21.3945C25.4577 20.6519 24.9795 31.5512 24.9795 24.7861C24.9794 18.0213 21.4793 16.631 17.1621 16.6309Z" fill="#C880FF"/>
<path d="M105.337 27.8555L139.543 62.0605H358.896L379.077 41.8779C378.985 41.6241 378.934 41.3509 378.934 41.0654C378.934 39.7455 380.004 38.6758 381.324 38.6758C382.477 38.676 383.438 39.4926 383.663 40.5791L383.669 40.585L383.665 40.5879C383.696 40.7423 383.714 40.9018 383.714 41.0654C383.714 42.3853 382.644 43.4548 381.324 43.4551C381.16 43.4551 381 43.4386 380.846 43.4072L360.203 64.0518L359.861 64.3926H138.576L138.235 64.0518L104.03 29.8457H56.2773V27.5137H104.996L105.337 27.8555ZM546.67 26.1523H397.667L390.182 33.6367C390.213 33.7905 390.229 33.9494 390.229 34.1123C390.229 35.4322 389.16 36.5028 387.84 36.5029C387.677 36.5029 387.518 36.4851 387.364 36.4541L387.361 36.458L387.356 36.4531C386.268 36.2296 385.449 35.2667 385.449 34.1123C385.449 32.7925 386.52 31.7227 387.84 31.7227C388.126 31.7227 388.399 31.7751 388.653 31.8672L396.359 24.1621L396.7 23.8203H546.67V26.1523Z" fill="#C880FF"/>
</svg>
