<svg width="255" height="306" viewBox="0 0 255 306" fill="none" xmlns="http://www.w3.org/2000/svg">
<path d="M127.13 0C197.342 0 254.26 50.902 254.261 113.692C254.261 176.483 197.342 305.592 127.13 305.592C56.9179 305.591 0 176.483 0 113.692C0.000276638 50.9021 56.9181 0.000169666 127.13 0ZM177 140.907L163.5 148.407L159 157.407L160 158.407L168 162.407L179.5 166.407L196.5 165.907L207 162.907L216 159.407L217.5 156.407L213.5 157.407L206 145.907L190.5 140.907H177ZM65 139.407C63.8 139.007 55.1667 141.241 51 142.407L33.5 157.407L37 159.907L45 162.907L52.5 165.907H72L87.5 159.907L90 156.407L82.5 145.907C77.1667 143.907 66.2 139.807 65 139.407Z" fill="url(#paint0_linear_275_11006)"/>
<path d="M90.3713 158.516C83.9849 143.992 63.3087 123.66 31.6958 158.516" stroke="black" stroke-width="4.6649"/>
<path d="M89.6973 157.504C74.5726 169.424 52.1899 168.666 33.3823 158.853" stroke="black" stroke-width="2.33245"/>
<path d="M159.173 158.517C165.559 143.993 186.235 123.661 217.848 158.517" stroke="black" stroke-width="4.6649"/>
<path d="M159.847 157.504C174.972 169.424 197.355 168.666 216.162 158.853" stroke="black" stroke-width="2.33245"/>
<defs>
<linearGradient id="paint0_linear_275_11006" x1="127.13" y1="-0.000488283" x2="127.13" y2="380.634" gradientUnits="userSpaceOnUse">
<stop offset="0.666357" stop-color="white"/>
<stop offset="1" stop-color="#999999"/>
</linearGradient>
</defs>
</svg>
