<svg width="64" height="64" viewBox="0 0 64 64" fill="none" xmlns="http://www.w3.org/2000/svg">
<path d="M32 0C49.673 0 63.9999 14.327 64 32C64 49.6731 49.6731 64 32 64C14.327 63.9999 6.65782e-07 49.673 0 32C5.70599e-05 14.327 14.327 7.41695e-05 32 0ZM32.0449 44.7646C20.0085 44.4 20.539 34.6834 20.5391 41.0371C20.5391 47.3915 25.6906 52.543 32.0449 52.543C38.399 52.5426 43.5498 47.3913 43.5498 41.0371C43.5498 34.6836 43.912 45.1238 32.0449 44.7646ZM44.4639 18.9141C39.6099 18.9141 35.6748 20.2975 35.6748 27.9033C35.6748 35.5089 34.5988 24.2695 44.4639 24.2695C53.7898 23.4351 53.252 40.2911 53.252 32.6865C53.2519 25.0811 49.3175 18.9147 44.4639 18.9141ZM19.2949 18.6973C14.4411 18.6973 10.506 24.8631 10.5059 32.4688C10.5059 40.0746 9.42989 24.0528 19.2949 24.0527C28.6213 23.2177 28.084 35.4713 28.084 27.8662C28.084 20.2606 24.1487 18.6973 19.2949 18.6973Z" fill="#C880FF"/>
</svg>
