<svg width="37" height="37" viewBox="0 0 37 37" fill="none" xmlns="http://www.w3.org/2000/svg">
<path d="M18.5 0C28.7172 0 37 8.28278 37 18.5C37 28.7172 28.7172 37 18.5 37C8.28286 36.9999 1.57511e-05 28.7172 0 18.5C1.72357e-05 8.28284 8.28286 9.89101e-05 18.5 0ZM18.3965 20.5781C17.1913 20.5785 16.214 22.4407 16.2139 24.7363C16.214 27.0319 17.1913 28.8932 18.3965 28.8936C19.6017 28.8933 20.579 27.032 20.5791 24.7363C20.579 22.4407 19.6017 20.5784 18.3965 20.5781ZM12.2656 11.8486C11.2326 11.8486 10.3948 13.3374 10.3945 15.1738C10.3945 17.0106 11.2324 18.5 12.2656 18.5C13.2986 18.4995 14.1357 17.0103 14.1357 15.1738C14.1355 13.3377 13.2984 11.8491 12.2656 11.8486ZM24.7373 11.8486C23.7042 11.8486 22.8663 13.3382 22.8662 15.1748C22.8663 17.0114 23.7042 18.5 24.7373 18.5C25.7703 18.4997 26.6083 17.0113 26.6084 15.1748C26.6083 13.3384 25.7703 11.8489 24.7373 11.8486Z" fill="#5A2FFC"/>
<path d="M6.23777 2.28667C6.23777 2.28667 6.11716 4.94625 7.27709 6.10618C8.43702 7.26611 11.2265 7.27541 11.2265 7.27541C11.2265 7.27541 8.43702 7.36267 7.27709 8.5226C6.11716 9.68253 6.23777 12.2642 6.23777 12.2642C6.23777 12.2642 6.07256 9.68253 4.91263 8.5226C3.75271 7.36267 1.24902 7.27541 1.24902 7.27541C1.24902 7.27541 3.75271 7.26611 4.91263 6.10618C6.07256 4.94625 6.23777 2.28667 6.23777 2.28667Z" fill="#997EFF"/>
</svg>
