<svg width="51" height="83" viewBox="0 0 51 83" fill="none" xmlns="http://www.w3.org/2000/svg">
<path d="M14.0731 82.5039C9.15868 82.5039 5.58454 80.9546 3.35071 77.8558C1.11689 74.7571 0 69.7991 0 62.9819V57.1717C0 55.6224 0.558462 54.8477 1.67537 54.8477H11.56C12.677 54.8477 13.2354 55.6224 13.2354 57.1717V61.0064C13.2354 63.5629 13.5984 65.3834 14.3244 66.468C15.1062 67.475 16.4186 67.9786 18.2615 67.9786H32.921C34.7639 67.9786 36.0483 67.475 36.7743 66.468C37.5561 65.3834 37.9471 63.5629 37.9471 61.0064V55.1963C37.9471 52.6398 37.5561 50.8581 36.7743 49.851C36.0483 48.7664 34.7639 48.2241 32.921 48.2241H20.2719C19.155 48.2241 18.5966 47.4494 18.5966 45.9001V36.6039C18.5966 35.0545 19.155 34.2798 20.2719 34.2798H32.0833C33.9262 34.2798 35.2106 33.7763 35.9366 32.7692C36.7185 31.6846 37.1094 29.8641 37.1094 27.3076V20.9165C37.1094 18.6699 36.7464 17.0431 36.0204 16.036C35.2944 15.0289 34.1496 14.5253 32.5859 14.5253H19.0992C17.2563 14.5253 15.9439 15.0676 15.1621 16.1522C14.4361 17.1593 14.0731 18.941 14.0731 21.4975V25.216C14.0731 26.7654 13.5146 27.54 12.3977 27.54H2.51304C1.39613 27.54 0.837671 26.7654 0.837671 25.216V19.4059C0.837671 12.5886 1.95459 7.66938 4.18842 4.64811C6.42224 1.54937 9.99635 0 14.9108 0H37.5282C41.7166 0 44.844 1.43317 46.9103 4.2995C49.0324 7.08837 50.0935 11.2717 50.0935 16.8494V26.2618C50.0935 29.9028 49.6188 32.8079 48.6694 34.977C47.7759 37.0687 46.5194 38.4244 44.8998 39.0441V39.8575C48.9207 41.4844 50.9311 46.2487 50.9311 54.1505V62.9819C50.9311 69.7991 49.8142 74.7571 47.5804 77.8558C45.4024 80.9546 41.8283 82.5039 36.8581 82.5039H14.0731Z" fill="black"/>
</svg>
