<svg width="69" height="83" viewBox="0 0 69 83" fill="none" xmlns="http://www.w3.org/2000/svg">
<path d="M33.8572 31.4214C38.8857 31.4214 42.5429 33.0024 44.8286 36.1643C47.1143 39.2471 48.2572 44.2667 48.2572 51.2229V63.08C48.2572 70.0362 47.1143 75.0952 44.8286 78.2572C42.6 81.4191 38.9429 83 33.8572 83H1.71432C0.571467 83 0 82.2095 0 80.6286V2.37143C0 0.790476 0.571467 0 1.71432 0H11.5714C12.7143 0 13.2857 0.790476 13.2857 2.37143V31.4214H33.8572ZM67.2857 0C68.4285 0 69 0.790476 69 2.37143V80.6286C69 82.2095 68.4285 83 67.2857 83H57.4286C56.2857 83 55.7143 82.2095 55.7143 80.6286V2.37143C55.7143 0.790476 56.2857 0 57.4286 0H67.2857ZM34.9714 53.3571C34.9714 50.7486 34.5714 48.9305 33.7714 47.9029C33.0286 46.7962 31.7143 46.2429 29.8286 46.2429H13.2857V68.1786H29.8286C31.7143 68.1786 33.0286 67.6648 33.7714 66.6371C34.5714 65.5305 34.9714 63.6729 34.9714 61.0643V53.3571Z" fill="black"/>
</svg>
