<svg width="53" height="83" viewBox="0 0 53 83" fill="none" xmlns="http://www.w3.org/2000/svg">
<path d="M1.69604 83C0.565372 83 0 82.2095 0 80.6286V2.37143C0 0.790476 0.565372 0 1.69604 0H11.2784C12.4091 0 12.9744 0.790476 12.9744 2.37143V57.0329H13.568L36.2944 2.01572C36.5771 1.22524 36.888 0.71143 37.2272 0.474285C37.6229 0.158094 38.1317 0 38.7536 0H51.304C52.4347 0 53 0.790476 53 2.37143V80.6286C53 82.2095 52.4347 83 51.304 83H41.8064C40.6757 83 40.1104 82.2095 40.1104 80.6286V25.3743H39.432L16.536 80.8657C16.2534 81.6562 15.9141 82.2095 15.5184 82.5257C15.1227 82.8419 14.6422 83 14.0768 83H1.69604Z" fill="black"/>
</svg>
