<svg width="52" height="83" viewBox="0 0 52 83" fill="none" xmlns="http://www.w3.org/2000/svg">
<path d="M14.8096 83C9.81762 83 6.10135 81.2854 3.66082 77.8563C1.22029 74.4272 0 69.2056 0 62.1915V20.6916C0 13.6775 1.22029 8.49484 3.66082 5.14366C6.10135 1.71455 9.81762 0 14.8096 0H37.2736C42.2656 0 45.9541 1.71455 48.3392 5.14366C50.7797 8.49484 52 13.6775 52 20.6916V27.4718C52 29.0305 51.4453 29.8099 50.336 29.8099H40.6016C39.4923 29.8099 38.9376 29.0305 38.9376 27.4718V23.3803C38.9376 20.7305 38.4938 18.8211 37.6064 17.6521C36.7744 16.4052 35.4155 15.7817 33.5296 15.7817H18.304C16.4181 15.7817 15.0315 16.4052 14.144 17.6521C13.312 18.8211 12.896 20.7305 12.896 23.3803V59.6197C12.896 62.2695 13.312 64.2178 14.144 65.4648C15.0315 66.6338 16.4181 67.2183 18.304 67.2183H33.5296C35.4155 67.2183 36.7744 66.6338 37.6064 65.4648C38.4938 64.2178 38.9376 62.2695 38.9376 59.6197V55.5282C38.9376 53.9695 39.4923 53.1901 40.6016 53.1901H50.336C51.4453 53.1901 52 53.9695 52 55.5282V62.1915C52 69.2056 50.7797 74.4272 48.3392 77.8563C45.9541 81.2854 42.2656 83 37.2736 83H14.8096Z" fill="black"/>
</svg>
