<svg width="54" height="83" viewBox="0 0 54 83" fill="none" xmlns="http://www.w3.org/2000/svg">
<path d="M9.57388 83C8.45413 83 7.89425 82.2151 7.89425 80.6454V70.0496C7.89425 68.4799 8.45413 67.695 9.57388 67.695H15.2006C16.4883 67.695 17.4681 67.4203 18.14 66.8709C18.8678 66.3215 19.4277 65.4582 19.8196 64.2809L21.1633 60.0425L0.335933 3.53192C0.111983 2.74705 0 2.23688 0 2.00142C0 0.667139 0.671849 0 2.01555 0H11.4215C12.0373 0 12.5132 0.156973 12.8491 0.470921C13.1851 0.78487 13.493 1.29504 13.7729 2.00142L21.9191 25.5475L27.7138 42.383H28.3857L33.5086 25.5475L40.563 2.11915C40.7869 1.33428 41.0669 0.78487 41.4028 0.470921C41.7387 0.156973 42.2146 0 42.8305 0H52.2364C52.7963 0 53.2162 0.196217 53.4961 0.588652C53.8321 0.9026 54 1.37352 54 2.00142C54 2.47234 53.916 3.02175 53.7481 3.64965L32.9207 67.4596C31.1851 72.7967 29.1975 76.721 26.958 79.2326C24.7745 81.7442 21.7512 83 17.888 83H9.57388Z" fill="black"/>
</svg>
