<svg width="51" height="83" viewBox="0 0 51 83" fill="none" xmlns="http://www.w3.org/2000/svg">
<path d="M36.6362 0C41.658 0 45.2816 1.5715 47.5072 4.71451C49.7898 7.77894 50.9311 12.7685 50.9311 19.6831V29.1121C50.9311 36.0267 49.7898 41.0555 47.5072 44.1985C45.2816 47.3415 41.658 48.913 36.6362 48.913H13.2678V80.1467C13.2678 81.7182 12.6971 82.5039 11.5558 82.5039H1.71196C0.570647 82.5039 0 81.7182 0 80.1467V2.35726C0 0.785752 0.570647 0 1.71196 0H36.6362ZM37.6634 21.8046C37.6634 19.2116 37.2639 17.4044 36.465 16.3829C35.7231 15.2829 34.4106 14.7328 32.5274 14.7328H13.2678V34.1802H32.5274C34.4106 34.1802 35.7231 33.6695 36.465 32.648C37.2639 31.5479 37.6634 29.7014 37.6634 27.1084V21.8046Z" fill="black"/>
</svg>
