<svg width="53" height="83" viewBox="0 0 53 83" fill="none" xmlns="http://www.w3.org/2000/svg">
<path d="M15.0944 83C10.0064 83 6.21862 81.2854 3.73116 77.8563C1.24369 74.4272 0 69.2056 0 62.1915V20.6916C0 13.6775 1.24369 8.49484 3.73116 5.14366C6.21862 1.71455 10.0064 0 15.0944 0H37.9904C43.0784 0 46.8378 1.71455 49.2688 5.14366C51.7562 8.49484 53 13.6775 53 20.6916V27.4718C53 29.0305 52.4346 29.8099 51.304 29.8099H41.3824C40.2517 29.8099 39.6864 29.0305 39.6864 27.4718V23.3803C39.6864 20.7305 39.2341 18.8211 38.3296 17.6521C37.4816 16.4052 36.0965 15.7817 34.1744 15.7817H18.656C16.7338 15.7817 15.3205 16.4052 14.416 17.6521C13.568 18.8211 13.144 20.7305 13.144 23.3803V59.6197C13.144 62.2695 13.568 64.2178 14.416 65.4648C15.3205 66.6338 16.7338 67.2183 18.656 67.2183H34.1744C36.0965 67.2183 37.4816 66.6338 38.3296 65.4648C39.2341 64.2178 39.6864 62.2695 39.6864 59.6197V55.5282C39.6864 53.9695 40.2517 53.1901 41.3824 53.1901H51.304C52.4346 53.1901 53 53.9695 53 55.5282V62.1915C53 69.2056 51.7562 74.4272 49.2688 77.8563C46.8378 81.2854 43.0784 83 37.9904 83H15.0944Z" fill="black"/>
</svg>
