<svg width="68" height="83" viewBox="0 0 68 83" fill="none" xmlns="http://www.w3.org/2000/svg">
<path d="M1.7109 82.5039C0.570284 82.5039 0 81.7182 0 80.1467V2.35726C0 0.785752 0.570284 0 1.7109 0H14.8851C15.4554 0 15.8831 0.157149 16.1683 0.471451C16.5105 0.785752 16.8526 1.33578 17.1948 2.12153L33.5342 38.0697H34.0475L50.3869 2.12153C50.7291 1.33578 51.0428 0.785752 51.3279 0.471451C51.6701 0.157149 52.1263 0 52.6966 0H65.8708C67.0114 0 67.5817 0.785752 67.5817 2.35726V80.1467C67.5817 81.7182 67.0114 82.5039 65.8708 82.5039H56.2041C55.0634 82.5039 54.4931 81.7182 54.4931 80.1467V25.3405H53.8943L39.8646 55.5134C39.4654 56.3777 39.0948 56.967 38.7526 57.2813C38.4674 57.5956 38.0111 57.7527 37.3838 57.7527H30.1979C29.5706 57.7527 29.0858 57.5956 28.7436 57.2813C28.4585 56.967 28.1163 56.3777 27.7171 55.5134L13.6874 25.3405H13.0886V80.1467C13.0886 81.7182 12.5183 82.5039 11.3776 82.5039H1.7109Z" fill="black"/>
</svg>
