<svg width="52" height="83" viewBox="0 0 52 83" fill="none" xmlns="http://www.w3.org/2000/svg">
<path d="M14.3684 83C9.35088 83 5.70175 81.4413 3.42105 78.3239C1.14035 75.2066 0 70.2188 0 63.3606V57.5155C0 55.9568 0.570176 55.1775 1.71053 55.1775H11.8026C12.943 55.1775 13.5132 55.9568 13.5132 57.5155V61.3732C13.5132 63.9451 13.8838 65.7765 14.625 66.8676C15.4232 67.8807 16.7632 68.3873 18.6447 68.3873H33.6118C35.4934 68.3873 36.8048 67.8807 37.5461 66.8676C38.3443 65.7765 38.7434 63.9451 38.7434 61.3732V55.5282C38.7434 52.9563 38.3443 51.1638 37.5461 50.1507C36.8048 49.0596 35.4934 48.5141 33.6118 48.5141H20.6974C19.557 48.5141 18.9868 47.7347 18.9868 46.1761V36.8239C18.9868 35.2653 19.557 34.4859 20.6974 34.4859H32.7566C34.6382 34.4859 35.9496 33.9793 36.6908 32.9662C37.489 31.8751 37.8882 30.0437 37.8882 27.4718V21.0423C37.8882 18.7822 37.5175 17.1455 36.7763 16.1324C36.0351 15.1193 34.8662 14.6127 33.2697 14.6127H19.5C17.6184 14.6127 16.2785 15.1582 15.4803 16.2493C14.739 17.2624 14.3684 19.0549 14.3684 21.6268V25.3676C14.3684 26.9263 13.7982 27.7056 12.6579 27.7056H2.56579C1.42544 27.7056 0.855264 26.9263 0.855264 25.3676V19.5225C0.855264 12.6643 1.99561 7.71549 4.27632 4.67606C6.55702 1.55869 10.2061 0 15.2237 0H38.3158C42.5921 0 45.7851 1.44179 47.8947 4.32535C50.0614 7.13099 51.1447 11.3394 51.1447 16.9507V26.4197C51.1447 30.0826 50.6601 33.0052 49.6908 35.1873C48.7785 37.2916 47.4956 38.6554 45.8421 39.2789V40.0972C49.9474 41.7338 52 46.5268 52 54.476V63.3606C52 70.2188 50.8597 75.2066 48.5789 78.3239C46.3553 81.4413 42.7061 83 37.6316 83H14.3684Z" fill="black"/>
</svg>
