<svg width="51" height="83" viewBox="0 0 51 83" fill="none" xmlns="http://www.w3.org/2000/svg">
<path d="M50.4099 79.3243C50.8033 79.9567 51 80.5891 51 81.2214C51 81.7748 50.8314 82.2095 50.4942 82.5257C50.2132 82.8419 49.7917 83 49.2297 83H38.1868C37.2876 83 36.5851 82.8419 36.0793 82.5257C35.5736 82.2095 35.0959 81.6957 34.6463 80.9843L13.0661 45.7686V80.6286C13.0661 82.2095 12.5041 83 11.3802 83H1.68596C0.561989 83 0 82.2095 0 80.6286V2.37143C0 0.790476 0.561989 0 1.68596 0H11.3802C12.5041 0 13.0661 0.790476 13.0661 2.37143V35.2157L34.8992 1.89715C35.3488 1.18572 35.7984 0.71143 36.2479 0.474285C36.7537 0.158094 37.4 0 38.1868 0H48.3025C48.9207 0 49.3983 0.197619 49.7355 0.592857C50.1289 0.909048 50.3256 1.34381 50.3256 1.89715C50.3256 2.37143 50.1008 3.00381 49.6512 3.79429L26.0479 39.9586L50.4099 79.3243Z" fill="black"/>
</svg>
