<svg width="45" height="83" viewBox="0 0 45 83" fill="none" xmlns="http://www.w3.org/2000/svg">
<path d="M43.3178 67.5857C44.4393 67.5857 45 68.3762 45 69.9571V80.6286C45 82.2095 44.4393 83 43.3178 83H1.68228C0.560786 83 0 82.2095 0 80.6286V2.37143C0 0.790476 0.560786 0 1.68228 0H42.4767C43.5982 0 44.1589 0.790476 44.1589 2.37143V13.0429C44.1589 14.6238 43.5982 15.4143 42.4767 15.4143H13.0374V33.7929H39.9533C41.0748 33.7929 41.6356 34.5833 41.6356 36.1643V46.2429C41.6356 47.8238 41.0748 48.6143 39.9533 48.6143H13.0374V67.5857H43.3178Z" fill="black"/>
</svg>
