<svg width="57" height="83" viewBox="0 0 57 83" fill="none" xmlns="http://www.w3.org/2000/svg">
<path d="M56.9139 80.3914C56.9713 80.6286 57 80.9843 57 81.4586C57 82.4862 56.6269 83 55.8807 83H46.2372C45.2039 83 44.5725 82.4072 44.3429 81.2214L41.5876 66.4H15.4124L12.6571 81.2214C12.4275 82.4072 11.7961 83 10.7628 83H1.11933C0.373109 83 0 82.4862 0 81.4586C0 80.9843 0.0286988 80.6286 0.0861006 80.3914L14.4653 1.77857C14.7523 0.592857 15.3837 0 16.3595 0H40.6405C41.6737 0 42.3051 0.592857 42.5348 1.77857L56.9139 80.3914ZM32.719 15.4143H24.281L19.6314 41.3814L17.8233 50.9857H39.1767L37.3686 41.3814L32.719 15.4143Z" fill="black"/>
</svg>
