<svg width="56" height="83" viewBox="0 0 56 83" fill="none" xmlns="http://www.w3.org/2000/svg">
<path d="M55.9154 80.3914C55.9718 80.6286 56 80.9843 56 81.4586C56 82.4862 55.6334 83 54.9003 83H45.426C44.4109 83 43.7905 82.4072 43.565 81.2214L40.858 66.4H15.142L12.4351 81.2214C12.2095 82.4072 11.5891 83 10.574 83H1.09971C0.366575 83 0 82.4862 0 81.4586C0 80.9843 0.0282154 80.6286 0.0846102 80.3914L14.2115 1.77857C14.4935 0.592857 15.1138 0 16.0725 0H39.9275C40.9426 0 41.5629 0.592857 41.7885 1.77857L55.9154 80.3914ZM32.145 15.4143H23.855L19.287 41.3814L17.5106 50.9857H38.4894L36.713 41.3814L32.145 15.4143Z" fill="black"/>
</svg>
