<svg width="72" height="789" viewBox="0 0 72 789" fill="none" xmlns="http://www.w3.org/2000/svg">
<circle cx="7.79486" cy="7.79486" r="7.79486" transform="matrix(-1 0 0 1 47.6357 541.321)" fill="white"/>
<path d="M39.8408 788.163V548.25" stroke="white" stroke-width="2.59833"/>
<path d="M39.8408 456.876L8.66089 403.086V198.342" stroke="white" stroke-width="2.59833"/>
<path d="M40.7068 388.886L63.2256 350.505V127.321" stroke="white" stroke-width="2.59833"/>
<circle cx="7.79498" cy="7.79498" r="7.79498" transform="matrix(-1 0 0 1 15.5898 166.296)" fill="white"/>
<circle cx="7.79498" cy="7.79498" r="7.79498" transform="matrix(-1 0 0 1 70.1543 86.6143)" fill="white"/>
<circle cx="7.79498" cy="7.79498" r="7.79498" transform="matrix(-1 0 0 1 16.4561 197.476)" fill="white"/>
<circle cx="7.79498" cy="7.79498" r="7.79498" transform="matrix(-1 0 0 1 71.0195 121.258)" fill="white"/>
<path d="M7.54391 173.702L7.98828 0.00341797" stroke="white" stroke-width="2.59833"/>
<path d="M61.9258 95.2754V0.00341797" stroke="white" stroke-width="2.59833"/>
<circle cx="7.79498" cy="7.79498" r="7.79498" transform="matrix(-1 0 0 1 47.6357 482.425)" fill="white"/>
<path d="M39.8408 490.221L39.8408 0.00341797" stroke="white" stroke-width="2.59833"/>
</svg>
