<svg width="47" height="52" viewBox="0 0 47 52" fill="none" xmlns="http://www.w3.org/2000/svg">
<path d="M29.437 25.9522C29.437 18.6076 23.5192 12.6537 16.2193 12.6537C8.91931 12.6537 3.00152 18.6076 3.00152 25.9522C3.00153 33.2967 8.91932 39.2507 16.2193 39.2507L16.2193 42.2706L16.1143 42.2702C7.2399 42.2137 0.0565291 34.9863 0.000337863 26.0577L2.8532e-06 25.9522C1.27742e-06 16.9398 7.26162 9.6338 16.2193 9.63379L16.3241 9.63413C25.2335 9.69089 32.4385 16.975 32.4385 25.9522L32.4382 26.0577C32.3818 35.0215 25.1419 42.2706 16.2193 42.2706L16.2193 39.2507C23.5192 39.2507 29.437 33.2967 29.437 25.9522Z" fill="black"/>
<path d="M23.0027 25.9546C23.0027 29.6463 19.966 32.6391 16.2201 32.6391C12.4742 32.6391 9.4375 29.6463 9.4375 25.9546C9.4375 22.2628 12.4742 19.27 16.2201 19.27C19.966 19.27 23.0027 22.2628 23.0027 25.9546Z" fill="black"/>
<path d="M45.4135 24.5772L45.4135 27.5262L15.5308 27.5262L15.5308 24.5772L45.4135 24.5772Z" fill="black"/>
<path d="M22.4136 1.188C35.9899 1.21254 46.9882 12.2941 46.9882 25.9604L46.9877 26.1206C46.9022 39.7132 35.9369 50.7083 22.4136 50.7327L22.4136 47.7298C34.3417 47.7052 44.0037 37.9681 44.0038 25.9604C44.0037 13.9526 34.3417 4.21551 22.4136 4.19097L22.4136 1.188Z" fill="black"/>
<path d="M23.1993 2.75246C23.1993 4.2726 21.9231 5.50491 20.3487 5.50491C18.7743 5.50491 17.498 4.2726 17.498 2.75246C17.498 1.23232 18.7743 7.99253e-06 20.3487 7.71726e-06C21.9231 7.44199e-06 23.1993 1.23232 23.1993 2.75246Z" fill="black"/>
<path d="M23.1993 49.1509C23.1993 50.671 21.9231 51.9033 20.3487 51.9034C18.7743 51.9034 17.498 50.671 17.498 49.1509C17.498 47.6308 18.7743 46.3984 20.3487 46.3984C21.9231 46.3984 23.1993 47.6308 23.1993 49.1509Z" fill="black"/>
</svg>
