<svg width="206" height="336" viewBox="0 0 206 336" fill="none" xmlns="http://www.w3.org/2000/svg">
<path d="M89.6518 175.456C75.4605 236.091 93.0921 315.648 93.0921 315.648C92.0887 317.942 88.0176 323.045 79.7609 325.109M79.7609 325.109C71.5041 327.173 84.6347 325.539 79.7609 325.109Z" stroke="black" stroke-width="15"/>
<path d="M115.882 176.316C130.074 236.951 112.442 316.508 112.442 316.508C113.446 318.802 117.517 323.905 125.773 325.969M125.773 325.969C134.03 328.034 120.9 326.399 125.773 325.969Z" stroke="black" stroke-width="15"/>
<path d="M109.865 70.5264C137.387 100.629 106.637 100.629 102.124 100.629C97.6115 100.629 66.8609 103.639 93.5233 70.5264C95.6734 61.9257 97.1815 27.9526 101.694 27.9526C106.207 27.9526 109.865 62.9263 109.865 70.5264Z" fill="black"/>
<path d="M63.8498 86.8677C59.5494 104.929 49.5725 141.999 44.068 145.783C37.1874 150.513 36.0538 113.87 24.0127 110" stroke="white" stroke-width="13"/>
<path d="M141.999 86.8677C146.299 104.929 156.276 141.999 161.781 145.783C168.661 150.513 169.795 113.87 181.836 110" stroke="white" stroke-width="13"/>
<path d="M34.0519 106.979C35.5345 111.027 33.9222 112.776 32.9307 113.145C33.0195 114.017 31.3692 115.798 24.0573 115.944C14.9174 116.127 10.0872 108.138 8.57083 106.353C5.41717 102.641 4.54515 102.191 4.12774 101.124C3.7938 100.27 8.46598 102.967 11.7465 103.181C10.6217 102.241 8.09143 100.031 6.96897 98.7097C5.56589 97.0582 3.79569 93.823 4.41422 92.8236C4.90904 92.0241 7.29404 91.7987 8.42468 91.7859C11.2039 91.7943 17.2302 92.3615 19.1009 94.5635L27.9871 105.023C28.1656 104.081 28.7434 101.537 29.6264 98.8909C30.5094 96.2451 33.3586 97.1419 34.6728 97.921C33.8481 99.2535 32.5693 102.931 34.0519 106.979Z" fill="white" stroke="white" stroke-width="2"/>
<path d="M171.797 106.979C170.314 111.027 171.926 112.776 172.918 113.145C172.829 114.017 174.479 115.798 181.791 115.944C190.931 116.127 195.761 108.138 197.278 106.353C200.431 102.641 201.303 102.191 201.721 101.124C202.055 100.27 197.383 102.967 194.102 103.181C195.227 102.241 197.757 100.031 198.88 98.7097C200.283 97.0582 202.053 93.823 201.434 92.8236C200.94 92.0241 198.555 91.7987 197.424 91.7859C194.645 91.7943 188.618 92.3615 186.748 94.5635L177.862 105.023C177.683 104.081 177.105 101.537 176.222 98.8909C175.339 96.2451 172.49 97.1419 171.176 97.921C172.001 99.2535 173.279 102.931 171.797 106.979Z" fill="white" stroke="white" stroke-width="2"/>
<path d="M91.8019 79.2572C91.8019 84.9294 74.4039 105.789 67.3944 105.789C60.3848 105.789 55.6787 90.9206 55.6787 85.2483C55.6787 79.576 61.3611 74.9777 68.3707 74.9777C75.3802 74.9777 91.8019 73.5849 91.8019 79.2572Z" fill="black"/>
<path d="M113.302 79.2572C113.302 84.9294 131.114 105.789 138.291 105.789C145.467 105.789 150.285 90.9206 150.285 85.2483C150.285 79.576 144.467 74.9777 137.291 74.9777C130.115 74.9777 113.302 73.5849 113.302 79.2572Z" fill="black"/>
<path d="M22.5507 116.863C25.3334 116.581 34.2637 107.423 35.544 110.902C37.564 116.391 30.0925 116.662 22.5507 116.863Z" fill="black"/>
<path d="M183.298 116.863C180.515 116.581 171.585 107.423 170.305 110.902C168.285 116.391 175.756 116.662 183.298 116.863Z" fill="black"/>
<path d="M101.264 0C114.564 0 127.066 10.2422 127.066 29.2422C127.066 30.5458 126.984 31.8568 126.834 33.168C127.809 32.8528 128.776 32.6826 129.646 32.6826C133.447 32.6826 133.947 35.9113 133.947 40.4238C130.937 46.8743 130.866 48.5947 127.066 48.5947C125.487 48.5947 124.033 47.9609 122.872 46.8984C117.306 59.1185 107.462 68.8066 101.264 68.8066C95.2293 69.3809 86.1238 59.6216 80.7451 47.4141C79.7057 48.1628 78.4861 48.5947 77.1816 48.5947C73.3818 48.5947 73.311 46.8743 70.3008 40.4238C70.3008 35.9113 70.8015 32.6826 74.6016 32.6826C75.2315 32.6826 75.9124 32.7728 76.6104 32.9414C76.4224 31.41 76.3213 29.8862 76.3213 28.3828C76.3213 9.38267 87.9636 0.00015098 101.264 0Z" fill="white"/>
<rect x="85.7822" y="109.23" width="32.6829" height="61.0655" fill="black"/>
<path d="M140.396 101.94C130.936 136.322 131.541 152.234 104.703 152.234C77.8653 152.234 78.0408 153.545 65.1396 101.94C65.1396 69.1648 76.1451 75.2779 102.983 75.2779C129.821 75.2779 140.396 69.1648 140.396 101.94Z" fill="white"/>
<path d="M122.765 173.225C117.684 182.393 118.009 186.636 103.593 186.636C89.1773 186.636 89.2716 186.985 82.3418 173.225C82.3418 164.485 88.2533 166.115 102.669 166.115C117.085 166.115 122.765 164.485 122.765 173.225Z" fill="white"/>
<path d="M107.284 36.4459C107.284 39.2959 109.425 35.5 112.513 35.5C115.6 35.5 118.465 39.2959 118.465 36.4459C118.465 33.5958 118.173 30.43 113.013 30C107.852 30 107.284 33.5958 107.284 36.4459Z" fill="black"/>
<path d="M107.284 36.4459C107.284 39.2959 109.425 35.5 112.513 35.5C115.6 35.5 118.465 39.2959 118.465 36.4459C118.465 33.5958 118.173 30.43 113.013 30C107.852 30 107.284 33.5958 107.284 36.4459Z" fill="black"/>
<path d="M96.1761 36.4459C96.1761 39.2959 94.0348 35.5 90.9473 35.5C87.8597 35.5 84.9951 39.2959 84.9951 36.4459C84.9951 33.5958 85.2868 30.43 90.4473 30C95.6077 30 96.1761 33.5958 96.1761 36.4459Z" fill="black"/>
<path d="M99.1131 317.368C85.6959 323.561 83.9184 318.659 84.9218 315.218C73.9128 315.218 55.6792 327.976 47.9385 335H98.6831L99.1131 317.368Z" fill="white" stroke="white" stroke-width="2"/>
<path d="M106.421 318.228C119.838 324.421 121.616 319.518 120.612 316.078C131.621 316.078 148.565 327.976 156.306 335H105.561L106.421 318.228Z" fill="white" stroke="white" stroke-width="2"/>
<ellipse cx="121.905" cy="93.3185" rx="7.74069" ry="7.31065" fill="#C880FF"/>
</svg>
