<svg width="234" height="336" viewBox="0 0 234 336" fill="none" xmlns="http://www.w3.org/2000/svg">
<path d="M104.639 175.456C90.4478 236.091 108.079 315.648 108.079 315.648C107.076 317.942 103.005 323.045 94.7482 325.109M94.7482 325.109C86.4915 327.173 99.622 325.539 94.7482 325.109Z" stroke="black" stroke-width="15"/>
<path d="M130.873 176.316C145.064 236.951 127.432 316.508 127.432 316.508C128.436 318.802 132.507 323.905 140.764 325.969M140.764 325.969C149.02 328.034 135.89 326.399 140.764 325.969Z" stroke="black" stroke-width="15"/>
<path d="M124.851 70.5264C152.374 100.629 121.623 100.629 117.11 100.629C112.598 100.629 81.8472 103.639 108.51 70.5264C110.66 61.9257 112.168 27.9526 116.68 27.9526C121.193 27.9526 124.851 62.9263 124.851 70.5264Z" fill="black"/>
<path d="M78.8371 86.8677C74.5367 104.929 64.5598 141.999 59.0553 145.783C52.1747 150.513 37.9835 173.305 25.9424 169.435" stroke="white" stroke-width="13"/>
<path d="M154.954 88.5879C159.254 106.65 169.231 143.719 174.736 147.503C181.616 152.234 195.808 175.026 207.849 171.155" stroke="white" stroke-width="13"/>
<path d="M31.0166 160.292C35.0617 161.783 35.3506 164.144 34.9895 165.138C35.7118 165.635 36.0007 168.046 31.3777 173.713C25.599 180.797 16.3835 179.305 14.0415 179.305C9.17073 179.305 8.26275 179.678 7.17924 179.305C6.31243 179.007 11.3929 177.193 13.6803 174.832C12.2356 175.08 8.91286 175.577 7.17924 175.577C5.01221 175.577 1.40054 174.832 1.03936 173.713C0.750428 172.818 2.12288 170.855 2.84522 169.985C4.65108 167.872 8.98513 163.647 11.8745 163.647H25.599C24.9971 162.901 23.432 160.813 21.9873 158.427C20.5426 156.041 23.0708 154.451 24.5155 153.954C24.9971 155.445 26.9715 158.8 31.0166 160.292Z" fill="white" stroke="white" stroke-width="2"/>
<path d="M202.774 162.012C198.729 163.503 198.44 165.864 198.802 166.858C198.079 167.356 197.79 169.766 202.413 175.433C208.192 182.517 217.408 181.026 219.75 181.026C224.62 181.026 225.528 181.398 226.612 181.026C227.479 180.727 222.398 178.913 220.111 176.552C221.555 176.8 224.878 177.297 226.612 177.297C228.779 177.297 232.39 176.552 232.752 175.433C233.041 174.539 231.668 172.575 230.946 171.705C229.14 169.592 224.806 165.367 221.917 165.367H208.192C208.794 164.622 210.359 162.534 211.804 160.148C213.248 157.762 210.72 156.171 209.276 155.674C208.794 157.165 206.82 160.52 202.774 162.012Z" fill="white" stroke="white" stroke-width="2"/>
<path d="M106.789 79.2572C106.789 84.9294 89.3912 105.789 82.3817 105.789C75.3721 105.789 70.666 90.9206 70.666 85.2483C70.666 79.576 76.3484 74.9777 83.358 74.9777C90.3675 74.9777 106.789 73.5849 106.789 79.2572Z" fill="black"/>
<path d="M128.291 79.2572C128.291 84.9294 146.103 105.789 153.28 105.789C160.456 105.789 165.274 90.9206 165.274 85.2483C165.274 79.576 159.457 74.9777 152.28 74.9777C145.104 74.9777 128.291 73.5849 128.291 79.2572Z" fill="black"/>
<path d="M31.1025 175.456C32.6896 173.153 31.4926 160.418 34.9729 161.695C40.464 163.709 35.833 169.579 31.1025 175.456Z" fill="black"/>
<path d="M202.688 177.176C201.101 174.873 202.298 162.138 198.818 163.415C193.327 165.429 197.958 171.299 202.688 177.176Z" fill="black"/>
<path d="M116.25 0C129.55 0 142.053 10.2422 142.053 29.2422C142.053 30.5458 141.97 31.8568 141.82 33.168C142.795 32.8528 143.763 32.6826 144.633 32.6826C148.433 32.6826 148.934 35.9113 148.934 40.4238C145.923 46.8743 145.853 48.5947 142.053 48.5947C140.473 48.5947 139.02 47.9609 137.858 46.8984C132.293 59.1185 122.448 68.8066 116.25 68.8066C110.216 69.3809 101.11 59.6216 95.7314 47.4141C94.692 48.1628 93.4725 48.5947 92.168 48.5947C88.3681 48.5947 88.2973 46.8743 85.2871 40.4238C85.2871 35.9113 85.7879 32.6826 89.5879 32.6826C90.2179 32.6826 90.8987 32.7728 91.5967 32.9414C91.4087 31.41 91.3076 29.8862 91.3076 28.3828C91.3076 9.38267 102.95 0.00015098 116.25 0Z" fill="white"/>
<rect x="100.769" y="109.23" width="32.6829" height="61.0655" fill="black"/>
<path d="M155.384 101.94C145.923 136.322 146.528 152.234 119.69 152.234C92.8526 152.234 93.0281 153.545 80.127 101.94C80.127 69.1648 91.1324 75.2779 117.97 75.2779C144.808 75.2779 155.384 69.1648 155.384 101.94Z" fill="white"/>
<path d="M137.753 173.225C132.671 182.393 132.996 186.636 118.58 186.636C104.165 186.636 104.259 186.985 97.3291 173.225C97.3291 164.485 103.241 166.115 117.656 166.115C132.072 166.115 137.753 164.485 137.753 173.225Z" fill="white"/>
<path d="M99.0485 33.4461C99.0485 36.2962 101.551 38.6066 104.639 38.6066C107.727 38.6066 110.229 36.2962 110.229 33.4461C110.229 30.5961 109.369 37.0779 104.209 36.6478C99.0485 36.6478 99.0485 30.5961 99.0485 33.4461Z" fill="black"/>
<path d="M122.271 33.4461C122.271 36.2962 124.774 38.6066 127.862 38.6066C130.949 38.6066 133.452 36.2962 133.452 33.4461C133.452 30.5961 132.592 37.0779 127.432 36.6478C122.271 36.6478 122.271 30.5961 122.271 33.4461Z" fill="black"/>
<path d="M114.1 317.368C100.683 323.561 98.9057 318.659 99.9091 315.218C88.9001 315.218 70.6665 327.976 62.9258 335H113.67L114.1 317.368Z" fill="white" stroke="white" stroke-width="2"/>
<path d="M121.41 318.228C134.828 324.421 136.605 319.518 135.602 316.078C146.611 316.078 163.554 327.976 171.295 335H120.55L121.41 318.228Z" fill="white" stroke="white" stroke-width="2"/>
<ellipse cx="136.892" cy="93.3185" rx="7.74069" ry="7.31065" fill="black"/>
</svg>
