<svg width="114" height="336" viewBox="0 0 114 336" fill="none" xmlns="http://www.w3.org/2000/svg">
<path d="M44.3031 175.456C30.1119 236.091 47.7434 315.648 47.7434 315.648C46.74 317.942 42.669 323.045 34.4123 325.109M34.4123 325.109C26.1555 327.173 39.286 325.539 34.4123 325.109Z" stroke="black" stroke-width="15"/>
<path d="M70.5338 176.316C84.725 236.951 67.0935 316.508 67.0935 316.508C68.0969 318.802 72.1679 323.905 80.4247 325.969M80.4247 325.969C88.6814 328.034 75.5509 326.399 80.4247 325.969Z" stroke="black" stroke-width="15"/>
<path d="M64.5161 70.5264C92.0386 100.629 61.288 100.629 56.7754 100.629C52.2629 100.629 21.5123 103.639 48.1747 70.5264C50.3248 61.9257 51.8328 27.9526 56.3454 27.9526C60.858 27.9526 64.5161 62.9263 64.5161 70.5264Z" fill="black"/>
<path d="M18.5014 86.8677C14.201 104.929 12.2531 149.82 12.2531 156.5C12.2531 165 6.50595 195 21.7546 210" stroke="white" stroke-width="13"/>
<path d="M95.7408 86.8677C100.041 104.929 101.989 149.82 101.989 156.5C101.989 165 107.736 195 92.4876 210" stroke="white" stroke-width="13"/>
<path d="M29.9757 207.667C26.9043 204.642 24.6447 205.385 23.8989 206.135C23.1416 205.693 20.8371 206.458 17.6772 213.054C13.7274 221.298 18.9997 229.002 19.9966 231.121C22.07 235.529 22.1192 236.509 22.9178 237.331C23.5567 237.988 23.0358 232.619 24.1986 229.544C24.5887 230.957 25.5534 234.175 26.2913 235.744C27.2138 237.705 29.4259 240.655 30.5918 240.506C31.5244 240.387 32.7169 238.309 33.1966 237.285C34.3395 234.752 36.3179 229.031 35.088 226.417L29.2457 213.998C30.1766 214.225 32.732 214.752 35.5061 215.044C38.2801 215.336 38.6433 212.371 38.4781 210.852C36.9237 211.051 33.047 210.693 29.9757 207.667Z" fill="white" stroke="white" stroke-width="2"/>
<path d="M84.2665 207.667C87.3379 204.642 89.5974 205.385 90.3433 206.135C91.1006 205.693 93.4051 206.458 96.565 213.054C100.515 221.298 95.2425 229.002 94.2455 231.121C92.1721 235.529 92.123 236.509 91.3244 237.331C90.6855 237.988 91.2064 232.619 90.0435 229.544C89.6535 230.957 88.6888 234.175 87.9509 235.744C87.0284 237.705 84.8162 240.655 83.6504 240.506C82.7178 240.387 81.5253 238.309 81.0456 237.285C79.9027 234.752 77.9243 229.031 79.1542 226.417L84.9965 213.998C84.0656 214.225 81.5102 214.752 78.7361 215.044C75.9621 215.336 75.5989 212.371 75.7641 210.852C77.3185 211.051 81.1951 210.693 84.2665 207.667Z" fill="white" stroke="white" stroke-width="2"/>
<path d="M46.4533 79.2572C46.4533 84.9294 29.0553 105.789 22.0457 105.789C15.0362 105.789 10.3301 90.9206 10.3301 85.2483C10.3301 79.576 16.0125 74.9777 23.022 74.9777C30.0316 74.9777 46.4533 73.5849 46.4533 79.2572Z" fill="black"/>
<path d="M67.9532 79.2572C67.9532 84.9294 85.7655 105.789 92.9419 105.789C100.118 105.789 104.937 90.9206 104.937 85.2483C104.937 79.576 99.1189 74.9777 91.9424 74.9777C84.7659 74.9777 67.9532 73.5849 67.9532 79.2572Z" fill="black"/>
<path d="M16.2167 214.046C17.6249 211.629 29.6582 207.291 27.0213 204.685C22.8609 200.574 19.5211 207.263 16.2167 214.046Z" fill="black"/>
<path d="M98.0255 214.046C96.6172 211.629 84.584 207.291 87.2209 204.685C91.3813 200.574 94.7211 207.263 98.0255 214.046Z" fill="black"/>
<path d="M55.915 0C69.2151 0 81.7176 10.2422 81.7178 29.2422C81.7178 30.5458 81.6353 31.8568 81.4854 33.168C82.4603 32.8528 83.4277 32.6826 84.2979 32.6826C88.0979 32.6826 88.5986 35.9113 88.5986 40.4238C85.5884 46.8743 85.5177 48.5947 81.7178 48.5947C80.1384 48.5947 78.6847 47.9609 77.5234 46.8984C71.9576 59.1185 62.1134 68.8066 55.915 68.8066C49.8806 69.3809 40.7751 59.6216 35.3965 47.4141C34.3571 48.1628 33.1375 48.5947 31.833 48.5947C28.0331 48.5947 27.9624 46.8743 24.9521 40.4238C24.9521 35.9113 25.4529 32.6826 29.2529 32.6826C29.8829 32.6826 30.5637 32.7728 31.2617 32.9414C31.0738 31.41 30.9727 29.8862 30.9727 28.3828C30.9727 9.38267 42.615 0.00015098 55.915 0Z" fill="white"/>
<rect x="40.4336" y="109.23" width="32.6829" height="61.0655" fill="black"/>
<path d="M95.0487 101.94C85.5879 136.322 86.1934 152.234 59.3555 152.234C32.5176 152.234 32.6931 153.545 19.792 101.94C19.792 69.1648 30.7975 75.2779 57.6354 75.2779C84.4733 75.2779 95.0487 69.1648 95.0487 101.94Z" fill="white"/>
<path d="M77.4168 173.225C72.335 182.393 72.6602 186.636 58.2444 186.636C43.8286 186.636 43.9229 186.985 36.9932 173.225C36.9932 164.485 42.9047 166.115 57.3205 166.115C71.7363 166.115 77.4168 164.485 77.4168 173.225Z" fill="white"/>
<path d="M38.7133 36.4459C38.7133 39.2959 41.2163 36.4459 44.3038 36.4459C47.3914 36.4459 49.8943 39.2959 49.8943 36.4459C49.8943 33.5958 52.4128 29.93 47.2523 29.5C42.0919 29.5 38.7133 33.5958 38.7133 36.4459Z" fill="black"/>
<path d="M38.7133 36.4459C38.7133 39.2959 41.2163 36.4459 44.3038 36.4459C47.3914 36.4459 49.8943 39.2959 49.8943 36.4459C49.8943 33.5958 52.4128 29.93 47.2523 29.5C42.0919 29.5 38.7133 33.5958 38.7133 36.4459Z" fill="black"/>
<path d="M74.5494 36.9459C74.5494 39.7959 72.0464 36.9459 68.9589 36.9459C65.8713 36.9459 63.3684 39.7959 63.3684 36.9459C63.3684 34.0958 60.8499 30.43 66.0104 30C71.1708 30 74.5494 34.0958 74.5494 36.9459Z" fill="black"/>
<path d="M53.7644 317.368C40.3472 323.561 38.5697 318.659 39.5732 315.218C28.5642 315.218 10.3306 327.976 2.58984 335H53.3345L53.7644 317.368Z" fill="white" stroke="white" stroke-width="2"/>
<path d="M61.0726 318.228C74.4898 324.421 76.2673 319.518 75.2638 316.078C86.2728 316.078 103.216 327.976 110.957 335H60.2124L61.0726 318.228Z" fill="white" stroke="white" stroke-width="2"/>
<ellipse cx="76.5571" cy="93.3185" rx="7.74069" ry="7.31065" fill="#15007D"/>
</svg>
