<svg width="169" height="336" viewBox="0 0 169 336" fill="none" xmlns="http://www.w3.org/2000/svg">
<path d="M89.5512 175.456C75.3599 236.091 92.9915 315.648 92.9915 315.648C91.9881 317.942 87.917 323.045 79.6603 325.109M79.6603 325.109C71.4036 327.173 84.5341 325.539 79.6603 325.109Z" stroke="black" stroke-width="15"/>
<path d="M115.782 176.316C129.973 236.951 112.342 316.508 112.342 316.508C113.345 318.802 117.416 323.905 125.673 325.969M125.673 325.969C133.929 328.034 120.799 326.399 125.673 325.969Z" stroke="black" stroke-width="15"/>
<path d="M109.764 70.5264C137.287 100.629 106.536 100.629 102.023 100.629C97.5109 100.629 66.7603 103.639 93.4227 70.5264C95.5728 61.9257 97.0809 27.9526 101.593 27.9526C106.106 27.9526 109.764 62.9263 109.764 70.5264Z" fill="black"/>
<path d="M63.7492 86.8677C59.4488 104.929 49.472 141.999 43.9675 145.783C37.0868 150.513 35.9532 113.87 23.9121 110" stroke="white" stroke-width="13"/>
<path d="M141.897 86.8677C146.197 104.929 156.174 141.999 161.679 145.783C168.559 150.513 122.857 178.87 134.898 175" stroke="white" stroke-width="13"/>
<path d="M33.9509 106.979C35.4335 111.027 33.8212 112.776 32.8296 113.145C32.9185 114.017 31.2682 115.798 23.9563 115.944C14.8164 116.127 14.4158 115.785 12.8994 114C9.74576 110.288 10.3227 111.067 9.90527 110C9.57134 109.146 9.62284 106.765 12.9033 106.979C11.7785 106.039 17.5258 105.821 16.4033 104.5C15.0002 102.849 17.2848 103.499 17.9033 102.5C18.3981 101.7 7.19304 91.7987 8.32369 91.7859C11.103 91.7943 14.0345 92.798 15.9053 95C17.776 97.202 25.7036 102.454 27.8861 105.023C28.0646 104.081 28.6424 101.537 29.5254 98.8909C30.4084 96.2451 33.2576 97.1419 34.5718 97.921C33.7471 99.2535 32.4684 102.931 33.9509 106.979Z" fill="white" stroke="white" stroke-width="2"/>
<path d="M139.595 170.579C135.685 168.761 133.807 170.22 133.356 171.177C132.495 171.015 130.581 172.51 129.82 179.784C128.869 188.876 136.423 194.361 138.074 196.022C141.507 199.477 141.883 200.384 142.911 200.89C143.734 201.294 141.44 196.412 141.502 193.125C142.344 194.325 144.334 197.032 145.556 198.262C147.083 199.799 150.158 201.835 151.206 201.303C152.044 200.877 152.47 198.519 152.577 197.394C152.803 194.624 152.745 188.571 150.708 186.522L141.033 176.787C141.987 176.688 144.571 176.327 147.282 175.669C149.992 175.012 149.338 172.098 148.673 170.722C147.275 171.432 143.504 172.397 139.595 170.579Z" fill="white" stroke="white" stroke-width="2"/>
<path d="M91.7014 79.2572C91.7014 84.9294 74.3033 105.789 67.2938 105.789C60.2842 105.789 55.5781 90.9206 55.5781 85.2483C55.5781 79.576 61.2605 74.9777 68.2701 74.9777C75.2796 74.9777 91.7014 73.5849 91.7014 79.2572Z" fill="black"/>
<path d="M113.2 79.2572C113.2 84.9294 131.013 105.789 138.189 105.789C145.365 105.789 150.184 90.9206 150.184 85.2483C150.184 79.576 144.366 74.9777 137.189 74.9777C130.013 74.9777 113.2 73.5849 113.2 79.2572Z" fill="black"/>
<path d="M22.4501 116.863C25.2328 116.581 34.1631 107.423 35.4434 110.902C37.4635 116.391 29.9919 116.662 22.4501 116.863Z" fill="black"/>
<path d="M128.778 181.208C129.293 178.459 139.17 170.331 135.811 168.762C130.511 166.288 129.612 173.71 128.778 181.208Z" fill="black"/>
<path d="M101.163 0C114.463 0 126.966 10.2422 126.966 29.2422C126.966 30.5458 126.883 31.8568 126.733 33.168C127.708 32.8528 128.676 32.6826 129.546 32.6826C133.346 32.6826 133.847 35.9113 133.847 40.4238C130.836 46.8743 130.766 48.5947 126.966 48.5947C125.386 48.5947 123.933 47.9609 122.771 46.8984C117.206 59.1185 107.361 68.8066 101.163 68.8066C95.1287 69.3809 86.0232 59.6216 80.6445 47.4141C79.6051 48.1628 78.3855 48.5947 77.0811 48.5947C73.2812 48.5947 73.2104 46.8743 70.2002 40.4238C70.2002 35.9113 70.701 32.6826 74.501 32.6826C75.1309 32.6826 75.8118 32.7728 76.5098 32.9414C76.3218 31.41 76.2207 29.8862 76.2207 28.3828C76.2207 9.38267 87.863 0.00015098 101.163 0Z" fill="white"/>
<rect x="85.6816" y="109.23" width="32.6829" height="61.0655" fill="black"/>
<path d="M140.296 101.94C130.835 136.322 131.441 152.234 104.603 152.234C77.7647 152.234 77.9402 153.545 65.0391 101.94C65.0391 69.1648 76.0445 75.2779 102.882 75.2779C129.72 75.2779 140.296 69.1648 140.296 101.94Z" fill="white"/>
<path d="M122.665 173.225C117.583 182.393 117.908 186.636 103.492 186.636C89.0767 186.636 89.171 186.985 82.2412 173.225C82.2412 164.485 88.1527 166.115 102.569 166.115C116.984 166.115 122.665 164.485 122.665 173.225Z" fill="white"/>
<path d="M83.9608 36.4459C83.9608 39.2959 86.4637 36.4459 89.5513 36.4459C92.6388 36.4459 95.1418 39.2959 95.1418 36.4459C95.1418 33.5958 96.0604 32.93 90.8999 32.5C85.7395 32.5 83.9608 33.5958 83.9608 36.4459Z" fill="black"/>
<path d="M107.183 36.4459C107.183 39.2959 109.325 35.5 112.412 35.5C115.5 35.5 118.364 39.2959 118.364 36.4459C118.364 33.5958 116.561 32.43 111.4 32C106.24 32 107.183 33.5958 107.183 36.4459Z" fill="black"/>
<path d="M99.0115 317.368C85.5943 323.561 83.8168 318.659 84.8202 315.218C73.8112 315.218 55.5776 327.976 47.8369 335H98.5815L99.0115 317.368Z" fill="white" stroke="white" stroke-width="2"/>
<path d="M106.32 318.228C119.737 324.421 121.514 319.518 120.511 316.078C131.52 316.078 148.463 327.976 156.204 335H105.459L106.32 318.228Z" fill="white" stroke="white" stroke-width="2"/>
<ellipse cx="121.804" cy="93.3185" rx="7.74069" ry="7.31065" fill="#6B42FF"/>
</svg>
