<svg width="29" height="29" viewBox="0 0 29 29" fill="none" xmlns="http://www.w3.org/2000/svg">
<path d="M14.4189 0C22.3824 0 28.8388 6.45555 28.8389 14.4189C28.8389 22.3824 22.3825 28.8379 14.4189 28.8379C6.45559 28.8377 0 22.3823 0 14.4189C7.63677e-05 6.45566 6.45564 0.000188513 14.4189 0ZM14.4199 17.8213C11.5567 17.8213 9.23536 20.1426 9.23535 23.0059C9.23535 25.869 8.99631 18.6341 14.4199 18.4697C19.7675 18.3078 19.6045 25.869 19.6045 23.0059C19.6045 20.1426 17.2832 17.8213 14.4199 17.8213ZM20.0244 14.1797C15.5691 14.1796 16.0557 9.58573 16.0557 11.7666C16.0559 13.7637 17.5459 15.4129 19.4805 15.6768C19.4557 15.7663 19.4424 15.8606 19.4424 15.958C19.4424 16.5395 19.9136 17.0116 20.4951 17.0117C21.0767 17.0117 21.5488 16.5396 21.5488 15.958C21.5488 15.7784 21.5022 15.6099 21.4229 15.4619C22.9247 14.8992 23.994 13.4575 23.9941 11.7666C23.9941 9.58573 24.2367 14.4192 20.0244 14.1797ZM8.66895 14.1797C4.21353 14.1797 4.69922 9.58572 4.69922 11.7666C4.69937 13.9474 6.47684 15.7148 8.66895 15.7148C10.8608 15.7146 12.6375 13.9472 12.6377 11.7666C12.6377 9.58581 12.8807 14.4188 8.66895 14.1797Z" fill="#5431FF"/>
</svg>
