<svg width="468" height="605" viewBox="0 0 468 605" fill="none" xmlns="http://www.w3.org/2000/svg">
<path d="M0 0H66V66H0V0Z" fill="#6B42FF"/>
<rect y="269" width="66" height="65" fill="#6B42FF"/>
<rect y="135" width="66" height="65" fill="#6B42FF"/>
<rect y="403" width="66" height="66" fill="#6B42FF"/>
<rect x="135" width="64" height="66" fill="#6B42FF"/>
<rect x="135" y="269" width="64" height="65" fill="white"/>
<rect x="135" y="135" width="64" height="65" fill="white"/>
<rect x="135" y="403" width="64" height="66" fill="#6B42FF"/>
<rect x="268" width="65" height="66" fill="#6B42FF"/>
<rect x="268" y="269" width="65" height="65" fill="white"/>
<rect x="268" y="135" width="65" height="65" fill="#6B42FF"/>
<rect x="268" y="403" width="65" height="66" fill="#6B42FF"/>
<rect x="68" width="65" height="66" fill="#6B42FF"/>
<rect x="68" y="135" width="65" height="65" fill="white"/>
<rect x="68" y="403" width="65" height="66" fill="white"/>
<rect x="201" width="65" height="66" fill="#6B42FF"/>
<rect x="201" y="269" width="65" height="65" fill="white"/>
<rect x="201" y="135" width="65" height="65" fill="white"/>
<rect x="201" y="403" width="65" height="66" fill="#6B42FF"/>
<rect x="335" width="65" height="66" fill="#6B42FF"/>
<rect x="335" y="269" width="65" height="65" fill="white"/>
<rect x="335" y="135" width="65" height="65" fill="white"/>
<rect x="335" y="403" width="65" height="66" fill="white"/>
<path d="M402 0H468V66H402V0Z" fill="#6B42FF"/>
<rect x="402" y="269" width="66" height="65" fill="#6B42FF"/>
<rect x="402" y="135" width="66" height="65" fill="#6B42FF"/>
<rect x="402" y="403" width="66" height="66" fill="#6B42FF"/>
<rect y="68" width="66" height="65" fill="#6B42FF"/>
<rect y="336" width="66" height="65" fill="#6B42FF"/>
<rect y="202" width="66" height="65" fill="#6B42FF"/>
<rect y="471" width="66" height="66" fill="#6B42FF"/>
<rect y="539" width="66" height="66" fill="#6B42FF"/>
<rect x="135" y="68" width="64" height="65" fill="#6B42FF"/>
<rect x="135" y="336" width="64" height="65" fill="#6B42FF"/>
<rect x="135" y="202" width="64" height="65" fill="#6B42FF"/>
<rect x="135" y="471" width="64" height="66" fill="#6B42FF"/>
<rect x="135" y="539" width="64" height="66" fill="#6B42FF"/>
<rect x="268" y="68" width="65" height="65" fill="#6B42FF"/>
<rect x="268" y="336" width="65" height="65" fill="#6B42FF"/>
<rect x="268" y="202" width="65" height="65" fill="#6B42FF"/>
<rect x="268" y="471" width="65" height="66" fill="#6B42FF"/>
<rect x="268" y="539" width="65" height="66" fill="#6B42FF"/>
<rect x="68" y="68" width="65" height="65" fill="#6B42FF"/>
<rect x="68" y="336" width="65" height="65" fill="white"/>
<rect x="68" y="471" width="65" height="66" fill="#6B42FF"/>
<rect x="68" y="539" width="65" height="66" fill="#6B42FF"/>
<rect x="201" y="68" width="65" height="65" fill="#6B42FF"/>
<rect x="201" y="336" width="65" height="65" fill="#6B42FF"/>
<rect x="201" y="202" width="65" height="65" fill="#6B42FF"/>
<rect x="201" y="471" width="65" height="66" fill="#6B42FF"/>
<rect x="201" y="539" width="65" height="66" fill="#6B42FF"/>
<rect x="335" y="68" width="65" height="65" fill="#6B42FF"/>
<rect x="335" y="336" width="65" height="65" fill="white"/>
<rect x="135" y="135" width="64" height="65" fill="#6B42FF"/>
<rect x="68" y="269" width="65" height="65" fill="white"/>
<rect x="68" y="135" width="65" height="65" fill="white"/>
<rect x="201" y="135" width="65" height="65" fill="#6B42FF"/>
<rect x="68" y="202" width="65" height="65" fill="white"/>
<rect x="335" y="202" width="65" height="65" fill="white"/>
<rect x="335" y="471" width="65" height="66" fill="#6B42FF"/>
<rect x="335" y="539" width="65" height="66" fill="#6B42FF"/>
<rect x="402" y="68" width="66" height="65" fill="#6B42FF"/>
<rect x="402" y="336" width="66" height="65" fill="#6B42FF"/>
<rect x="402" y="202" width="66" height="65" fill="#6B42FF"/>
<rect x="402" y="471" width="66" height="66" fill="#6B42FF"/>
<path d="M402 539H468V605H402V539Z" fill="#6B42FF"/>
</svg>
